G04 ---------------------------- Layer name :BOTTOM SILK LAYER*
G04 EasyEDA v5.8.22, Wed, 05 Dec 2018 03:51:52 GMT*
G04 5ecc0feef65b44bfa0a9ec5bdeff4b52*
G04 Gerber Generator version 0.2*
G04 Scale: 100 percent, Rotated: No, Reflected: No *
G04 Dimensions in millimeters *
G04 leading zeros omitted , absolute positions ,3 integer and 3 decimal *
%FSLAX33Y33*%
%MOMM*%
G90*
G71D02*

%ADD10C,0.254000*%
%ADD43C,0.200000*%
%ADD50C,0.177800*%

%LPD*%
G54D10*
G01X42913Y35864D02*
G01X42913Y35203D01*
G01X42913Y35864D01*
G01X42913Y35203D01*
G01X43729Y35203D01*
G01X43729Y38122D02*
G01X42913Y38122D01*
G01X42913Y37464D01*
G54D43*
G01X44463Y36964D02*
G01X44463Y36362D01*
G54D10*
G01X38735Y39840D02*
G01X38735Y40348D01*
G01X40513Y40348D01*
G01X40513Y39840D01*
G01X38735Y38316D02*
G01X38735Y35522D01*
G01X40513Y35522D01*
G01X40513Y38316D01*
G01X53962Y35737D02*
G01X53962Y35076D01*
G01X53962Y35737D01*
G01X53962Y35076D01*
G01X54778Y35076D01*
G01X54778Y37995D02*
G01X53962Y37995D01*
G01X53962Y37337D01*
G54D43*
G01X55512Y36837D02*
G01X55512Y36235D01*
G54D10*
G01X49786Y39712D02*
G01X49786Y40220D01*
G01X51564Y40220D01*
G01X51564Y39712D01*
G01X49786Y38188D02*
G01X49786Y35394D01*
G01X51564Y35394D01*
G01X51564Y38188D01*
G01X85344Y14186D02*
G01X85344Y14694D01*
G01X87122Y14694D01*
G01X87122Y14186D01*
G01X85344Y12662D02*
G01X85344Y9868D01*
G01X87122Y9868D01*
G01X87122Y12662D01*
G01X90694Y11808D02*
G01X90694Y12468D01*
G01X90694Y11808D01*
G01X90694Y12468D01*
G01X89878Y12468D01*
G01X89878Y9550D02*
G01X90694Y9550D01*
G01X90694Y10208D01*
G54D43*
G01X89144Y10708D02*
G01X89144Y11310D01*
G54D10*
G01X92839Y12915D02*
G01X92839Y13423D01*
G01X94617Y13423D01*
G01X94617Y12915D01*
G01X92839Y11391D02*
G01X92839Y8597D01*
G01X94617Y8597D01*
G01X94617Y11391D01*
G01X73408Y14312D02*
G01X73408Y14820D01*
G01X75186Y14820D01*
G01X75186Y14312D01*
G01X73408Y12788D02*
G01X73408Y9994D01*
G01X75186Y9994D01*
G01X75186Y12788D01*
G01X78881Y11937D02*
G01X78881Y12597D01*
G01X78881Y11937D01*
G01X78881Y12597D01*
G01X78065Y12597D01*
G01X78065Y9679D02*
G01X78881Y9679D01*
G01X78881Y10336D01*
G54D43*
G01X77331Y10837D02*
G01X77331Y11439D01*
G54D10*
G01X80899Y13043D02*
G01X80899Y13551D01*
G01X82677Y13551D01*
G01X82677Y13043D01*
G01X80899Y11519D02*
G01X80899Y8725D01*
G01X82677Y8725D01*
G01X82677Y11519D01*
G01X17401Y37424D02*
G01X17147Y37805D01*
G01X17147Y35773D01*
G01X17147Y37805D02*
G01X16893Y37424D01*
G01X17147Y38694D02*
G01X17274Y38567D01*
G01X17147Y38440D01*
G01X17147Y38694D01*
G01X17020Y38567D01*
G01X17147Y38440D01*
G01X17401Y40472D02*
G01X17147Y40091D01*
G01X17147Y42377D01*
G01X17147Y40091D02*
G01X16893Y40472D01*
G01X17147Y34503D02*
G01X17147Y35519D01*
G01X16639Y35011D02*
G01X17655Y35011D01*
G01X17147Y42631D02*
G01X17147Y43647D01*
G54D50*
G01X42265Y41236D02*
G01X41175Y41236D01*
G01X42265Y41236D02*
G01X42265Y41704D01*
G01X42214Y41859D01*
G01X42163Y41912D01*
G01X42059Y41963D01*
G01X41955Y41963D01*
G01X41851Y41912D01*
G01X41798Y41859D01*
G01X41747Y41704D01*
G01X41747Y41236D01*
G01X41747Y41600D02*
G01X41175Y41963D01*
G01X42006Y42359D02*
G01X42059Y42359D01*
G01X42163Y42410D01*
G01X42214Y42463D01*
G01X42265Y42567D01*
G01X42265Y42773D01*
G01X42214Y42877D01*
G01X42163Y42931D01*
G01X42059Y42981D01*
G01X41955Y42981D01*
G01X41851Y42931D01*
G01X41693Y42826D01*
G01X41175Y42306D01*
G01X41175Y43035D01*
G01X41643Y43378D02*
G01X41643Y44312D01*
G01X42265Y44655D02*
G01X41175Y44655D01*
G01X42265Y44655D02*
G01X42265Y45018D01*
G01X42214Y45173D01*
G01X42110Y45278D01*
G01X42006Y45331D01*
G01X41851Y45382D01*
G01X41592Y45382D01*
G01X41434Y45331D01*
G01X41330Y45278D01*
G01X41226Y45173D01*
G01X41175Y45018D01*
G01X41175Y44655D01*
G01X42265Y45829D02*
G01X42265Y46400D01*
G01X41851Y46088D01*
G01X41851Y46245D01*
G01X41798Y46349D01*
G01X41747Y46400D01*
G01X41592Y46454D01*
G01X41488Y46454D01*
G01X41330Y46400D01*
G01X41226Y46296D01*
G01X41175Y46141D01*
G01X41175Y45986D01*
G01X41226Y45829D01*
G01X41279Y45778D01*
G01X41384Y45725D01*
G01X43888Y41186D02*
G01X42798Y41186D01*
G01X43888Y41186D02*
G01X43888Y41653D01*
G01X43837Y41808D01*
G01X43786Y41861D01*
G01X43682Y41912D01*
G01X43578Y41912D01*
G01X43474Y41861D01*
G01X43421Y41808D01*
G01X43370Y41653D01*
G01X43370Y41186D01*
G01X43370Y41549D02*
G01X42798Y41912D01*
G01X43682Y42255D02*
G01X43733Y42359D01*
G01X43888Y42517D01*
G01X42798Y42517D01*
G01X43266Y42859D02*
G01X43266Y43794D01*
G01X43888Y44137D02*
G01X42798Y44137D01*
G01X43888Y44137D02*
G01X43888Y44500D01*
G01X43837Y44655D01*
G01X43733Y44759D01*
G01X43629Y44813D01*
G01X43474Y44863D01*
G01X43215Y44863D01*
G01X43057Y44813D01*
G01X42953Y44759D01*
G01X42849Y44655D01*
G01X42798Y44500D01*
G01X42798Y44137D01*
G01X43888Y45311D02*
G01X43888Y45882D01*
G01X43474Y45570D01*
G01X43474Y45727D01*
G01X43421Y45831D01*
G01X43370Y45882D01*
G01X43215Y45935D01*
G01X43111Y45935D01*
G01X42953Y45882D01*
G01X42849Y45778D01*
G01X42798Y45623D01*
G01X42798Y45465D01*
G01X42849Y45311D01*
G01X42903Y45260D01*
G01X43007Y45206D01*
G01X45539Y41226D02*
G01X44449Y41226D01*
G01X45539Y41226D02*
G01X45539Y41694D01*
G01X45488Y41849D01*
G01X45437Y41902D01*
G01X45333Y41953D01*
G01X45229Y41953D01*
G01X45125Y41902D01*
G01X45072Y41849D01*
G01X45021Y41694D01*
G01X45021Y41226D01*
G01X45021Y41589D02*
G01X44449Y41953D01*
G01X45539Y42400D02*
G01X45539Y42971D01*
G01X45125Y42661D01*
G01X45125Y42816D01*
G01X45072Y42920D01*
G01X45021Y42971D01*
G01X44866Y43025D01*
G01X44762Y43025D01*
G01X44604Y42971D01*
G01X44500Y42867D01*
G01X44449Y42712D01*
G01X44449Y42557D01*
G01X44500Y42400D01*
G01X44554Y42349D01*
G01X44658Y42296D01*
G01X44917Y43367D02*
G01X44917Y44302D01*
G01X45539Y44645D02*
G01X44449Y44645D01*
G01X45539Y44645D02*
G01X45539Y45008D01*
G01X45488Y45163D01*
G01X45384Y45267D01*
G01X45280Y45321D01*
G01X45125Y45371D01*
G01X44866Y45371D01*
G01X44708Y45321D01*
G01X44604Y45267D01*
G01X44500Y45163D01*
G01X44449Y45008D01*
G01X44449Y44645D01*
G01X45539Y45819D02*
G01X45539Y46390D01*
G01X45125Y46078D01*
G01X45125Y46235D01*
G01X45072Y46339D01*
G01X45021Y46390D01*
G01X44866Y46443D01*
G01X44762Y46443D01*
G01X44604Y46390D01*
G01X44500Y46286D01*
G01X44449Y46131D01*
G01X44449Y45976D01*
G01X44500Y45819D01*
G01X44554Y45768D01*
G01X44658Y45714D01*
G01X47548Y34284D02*
G01X47497Y34180D01*
G01X47393Y34076D01*
G01X47289Y34023D01*
G01X47134Y33972D01*
G01X46875Y33972D01*
G01X46718Y34023D01*
G01X46613Y34076D01*
G01X46509Y34180D01*
G01X46459Y34284D01*
G01X46459Y34493D01*
G01X46509Y34594D01*
G01X46613Y34698D01*
G01X46718Y34752D01*
G01X46875Y34803D01*
G01X47134Y34803D01*
G01X47289Y34752D01*
G01X47393Y34698D01*
G01X47497Y34594D01*
G01X47548Y34493D01*
G01X47548Y34284D01*
G01X46667Y34439D02*
G01X46354Y34752D01*
G01X47342Y35146D02*
G01X47393Y35250D01*
G01X47548Y35407D01*
G01X46459Y35407D01*
G01X46926Y35750D02*
G01X46926Y36685D01*
G01X47548Y37028D02*
G01X46459Y37028D01*
G01X47548Y37028D02*
G01X47548Y37391D01*
G01X47497Y37546D01*
G01X47393Y37650D01*
G01X47289Y37703D01*
G01X47134Y37754D01*
G01X46875Y37754D01*
G01X46718Y37703D01*
G01X46613Y37650D01*
G01X46509Y37546D01*
G01X46459Y37391D01*
G01X46459Y37028D01*
G01X47548Y38201D02*
G01X47548Y38773D01*
G01X47134Y38460D01*
G01X47134Y38618D01*
G01X47081Y38722D01*
G01X47030Y38773D01*
G01X46875Y38823D01*
G01X46771Y38823D01*
G01X46613Y38773D01*
G01X46509Y38669D01*
G01X46459Y38514D01*
G01X46459Y38356D01*
G01X46509Y38201D01*
G01X46563Y38150D01*
G01X46667Y38097D01*
G01X38201Y34391D02*
G01X37370Y34391D01*
G01X37215Y34338D01*
G01X37162Y34287D01*
G01X37111Y34183D01*
G01X37111Y34079D01*
G01X37162Y33975D01*
G01X37215Y33921D01*
G01X37370Y33870D01*
G01X37475Y33870D01*
G01X38201Y34734D02*
G01X37111Y34734D01*
G01X38201Y34734D02*
G01X37111Y35148D01*
G01X38201Y35565D02*
G01X37111Y35148D01*
G01X38201Y35565D02*
G01X37111Y35565D01*
G01X38201Y35908D02*
G01X37111Y35908D01*
G01X38201Y35908D02*
G01X38201Y36375D01*
G01X38150Y36530D01*
G01X38099Y36583D01*
G01X37995Y36634D01*
G01X37838Y36634D01*
G01X37734Y36583D01*
G01X37683Y36530D01*
G01X37629Y36375D01*
G01X37629Y35908D01*
G01X37995Y36977D02*
G01X38046Y37081D01*
G01X38201Y37236D01*
G01X37111Y37236D01*
G01X37579Y37579D02*
G01X37579Y38516D01*
G01X38201Y38859D02*
G01X37111Y38859D01*
G01X38201Y38859D02*
G01X38201Y39222D01*
G01X38150Y39377D01*
G01X38046Y39481D01*
G01X37942Y39535D01*
G01X37787Y39585D01*
G01X37528Y39585D01*
G01X37370Y39535D01*
G01X37266Y39481D01*
G01X37162Y39377D01*
G01X37111Y39222D01*
G01X37111Y38859D01*
G01X38201Y40032D02*
G01X38201Y40604D01*
G01X37787Y40292D01*
G01X37787Y40449D01*
G01X37734Y40551D01*
G01X37683Y40604D01*
G01X37528Y40655D01*
G01X37424Y40655D01*
G01X37266Y40604D01*
G01X37162Y40500D01*
G01X37111Y40345D01*
G01X37111Y40187D01*
G01X37162Y40032D01*
G01X37215Y39979D01*
G01X37320Y39928D01*
G01X56489Y41109D02*
G01X55399Y41109D01*
G01X56489Y41109D02*
G01X56489Y41577D01*
G01X56438Y41732D01*
G01X56387Y41785D01*
G01X56283Y41836D01*
G01X56179Y41836D01*
G01X56075Y41785D01*
G01X56022Y41732D01*
G01X55971Y41577D01*
G01X55971Y41109D01*
G01X55971Y41473D02*
G01X55399Y41836D01*
G01X56489Y42283D02*
G01X56489Y42854D01*
G01X56075Y42545D01*
G01X56075Y42699D01*
G01X56022Y42804D01*
G01X55971Y42854D01*
G01X55816Y42908D01*
G01X55712Y42908D01*
G01X55554Y42854D01*
G01X55450Y42750D01*
G01X55399Y42595D01*
G01X55399Y42440D01*
G01X55450Y42283D01*
G01X55504Y42232D01*
G01X55608Y42179D01*
G01X55867Y43251D02*
G01X55867Y44185D01*
G01X56489Y44528D02*
G01X55399Y44528D01*
G01X56489Y44528D02*
G01X56489Y44892D01*
G01X56438Y45046D01*
G01X56334Y45151D01*
G01X56230Y45204D01*
G01X56075Y45255D01*
G01X55816Y45255D01*
G01X55658Y45204D01*
G01X55554Y45151D01*
G01X55450Y45046D01*
G01X55399Y44892D01*
G01X55399Y44528D01*
G01X56489Y46118D02*
G01X55763Y45598D01*
G01X55763Y46377D01*
G01X56489Y46118D02*
G01X55399Y46118D01*
G01X53060Y41109D02*
G01X51970Y41109D01*
G01X53060Y41109D02*
G01X53060Y41577D01*
G01X53009Y41732D01*
G01X52958Y41785D01*
G01X52854Y41836D01*
G01X52750Y41836D01*
G01X52646Y41785D01*
G01X52593Y41732D01*
G01X52542Y41577D01*
G01X52542Y41109D01*
G01X52542Y41473D02*
G01X51970Y41836D01*
G01X52801Y42232D02*
G01X52854Y42232D01*
G01X52958Y42283D01*
G01X53009Y42336D01*
G01X53060Y42440D01*
G01X53060Y42646D01*
G01X53009Y42750D01*
G01X52958Y42804D01*
G01X52854Y42854D01*
G01X52750Y42854D01*
G01X52646Y42804D01*
G01X52488Y42699D01*
G01X51970Y42179D01*
G01X51970Y42908D01*
G01X52438Y43251D02*
G01X52438Y44185D01*
G01X53060Y44528D02*
G01X51970Y44528D01*
G01X53060Y44528D02*
G01X53060Y44892D01*
G01X53009Y45046D01*
G01X52905Y45151D01*
G01X52801Y45204D01*
G01X52646Y45255D01*
G01X52387Y45255D01*
G01X52229Y45204D01*
G01X52125Y45151D01*
G01X52021Y45046D01*
G01X51970Y44892D01*
G01X51970Y44528D01*
G01X53060Y46118D02*
G01X52334Y45598D01*
G01X52334Y46377D01*
G01X53060Y46118D02*
G01X51970Y46118D01*
G01X54711Y41109D02*
G01X53621Y41109D01*
G01X54711Y41109D02*
G01X54711Y41577D01*
G01X54660Y41732D01*
G01X54609Y41785D01*
G01X54505Y41836D01*
G01X54401Y41836D01*
G01X54297Y41785D01*
G01X54244Y41732D01*
G01X54193Y41577D01*
G01X54193Y41109D01*
G01X54193Y41473D02*
G01X53621Y41836D01*
G01X54505Y42179D02*
G01X54556Y42283D01*
G01X54711Y42440D01*
G01X53621Y42440D01*
G01X54089Y42783D02*
G01X54089Y43718D01*
G01X54711Y44061D02*
G01X53621Y44061D01*
G01X54711Y44061D02*
G01X54711Y44424D01*
G01X54660Y44579D01*
G01X54556Y44683D01*
G01X54452Y44737D01*
G01X54297Y44787D01*
G01X54038Y44787D01*
G01X53880Y44737D01*
G01X53776Y44683D01*
G01X53672Y44579D01*
G01X53621Y44424D01*
G01X53621Y44061D01*
G01X54711Y45651D02*
G01X53985Y45130D01*
G01X53985Y45910D01*
G01X54711Y45651D02*
G01X53621Y45651D01*
G01X58394Y34183D02*
G01X58343Y34079D01*
G01X58239Y33975D01*
G01X58135Y33921D01*
G01X57980Y33870D01*
G01X57721Y33870D01*
G01X57563Y33921D01*
G01X57459Y33975D01*
G01X57355Y34079D01*
G01X57304Y34183D01*
G01X57304Y34391D01*
G01X57355Y34493D01*
G01X57459Y34597D01*
G01X57563Y34650D01*
G01X57721Y34701D01*
G01X57980Y34701D01*
G01X58135Y34650D01*
G01X58239Y34597D01*
G01X58343Y34493D01*
G01X58394Y34391D01*
G01X58394Y34183D01*
G01X57513Y34338D02*
G01X57200Y34650D01*
G01X58188Y35044D02*
G01X58239Y35148D01*
G01X58394Y35306D01*
G01X57304Y35306D01*
G01X57772Y35648D02*
G01X57772Y36583D01*
G01X58394Y36926D02*
G01X57304Y36926D01*
G01X58394Y36926D02*
G01X58394Y37289D01*
G01X58343Y37444D01*
G01X58239Y37548D01*
G01X58135Y37602D01*
G01X57980Y37653D01*
G01X57721Y37653D01*
G01X57563Y37602D01*
G01X57459Y37548D01*
G01X57355Y37444D01*
G01X57304Y37289D01*
G01X57304Y36926D01*
G01X58394Y38516D02*
G01X57668Y37995D01*
G01X57668Y38775D01*
G01X58394Y38516D02*
G01X57304Y38516D01*
G01X49095Y34411D02*
G01X48264Y34411D01*
G01X48109Y34358D01*
G01X48056Y34307D01*
G01X48005Y34203D01*
G01X48005Y34099D01*
G01X48056Y33995D01*
G01X48109Y33942D01*
G01X48264Y33891D01*
G01X48369Y33891D01*
G01X49095Y34754D02*
G01X48005Y34754D01*
G01X49095Y34754D02*
G01X48005Y35168D01*
G01X49095Y35585D02*
G01X48005Y35168D01*
G01X49095Y35585D02*
G01X48005Y35585D01*
G01X49095Y35928D02*
G01X48005Y35928D01*
G01X49095Y35928D02*
G01X49095Y36395D01*
G01X49044Y36550D01*
G01X48993Y36603D01*
G01X48889Y36654D01*
G01X48732Y36654D01*
G01X48628Y36603D01*
G01X48577Y36550D01*
G01X48524Y36395D01*
G01X48524Y35928D01*
G01X48889Y36997D02*
G01X48940Y37101D01*
G01X49095Y37256D01*
G01X48005Y37256D01*
G01X48473Y37599D02*
G01X48473Y38536D01*
G01X49095Y38879D02*
G01X48005Y38879D01*
G01X49095Y38879D02*
G01X49095Y39243D01*
G01X49044Y39397D01*
G01X48940Y39502D01*
G01X48836Y39555D01*
G01X48681Y39606D01*
G01X48422Y39606D01*
G01X48264Y39555D01*
G01X48160Y39502D01*
G01X48056Y39397D01*
G01X48005Y39243D01*
G01X48005Y38879D01*
G01X49095Y40469D02*
G01X48369Y39949D01*
G01X48369Y40728D01*
G01X49095Y40469D02*
G01X48005Y40469D01*
G01X86306Y3688D02*
G01X85475Y3688D01*
G01X85320Y3637D01*
G01X85267Y3586D01*
G01X85216Y3482D01*
G01X85216Y3378D01*
G01X85267Y3274D01*
G01X85320Y3220D01*
G01X85475Y3169D01*
G01X85580Y3169D01*
G01X86306Y4031D02*
G01X85216Y4031D01*
G01X86306Y4031D02*
G01X85216Y4447D01*
G01X86306Y4864D02*
G01X85216Y4447D01*
G01X86306Y4864D02*
G01X85216Y4864D01*
G01X86306Y5207D02*
G01X85216Y5207D01*
G01X86306Y5207D02*
G01X86306Y5674D01*
G01X86255Y5829D01*
G01X86202Y5882D01*
G01X86100Y5933D01*
G01X85943Y5933D01*
G01X85839Y5882D01*
G01X85788Y5829D01*
G01X85734Y5674D01*
G01X85734Y5207D01*
G01X86100Y6276D02*
G01X86151Y6380D01*
G01X86306Y6535D01*
G01X85216Y6535D01*
G01X85684Y6878D02*
G01X85684Y7815D01*
G01X86306Y8158D02*
G01X85216Y8158D01*
G01X86306Y8158D02*
G01X86306Y8521D01*
G01X86255Y8676D01*
G01X86151Y8780D01*
G01X86047Y8831D01*
G01X85892Y8884D01*
G01X85630Y8884D01*
G01X85475Y8831D01*
G01X85371Y8780D01*
G01X85267Y8676D01*
G01X85216Y8521D01*
G01X85216Y8158D01*
G01X86100Y9227D02*
G01X86151Y9332D01*
G01X86306Y9486D01*
G01X85216Y9486D01*
G01X92433Y5861D02*
G01X92380Y5757D01*
G01X92276Y5655D01*
G01X92174Y5602D01*
G01X92017Y5551D01*
G01X91758Y5551D01*
G01X91603Y5602D01*
G01X91499Y5655D01*
G01X91394Y5757D01*
G01X91341Y5861D01*
G01X91341Y6069D01*
G01X91394Y6173D01*
G01X91499Y6278D01*
G01X91603Y6328D01*
G01X91758Y6382D01*
G01X92017Y6382D01*
G01X92174Y6328D01*
G01X92276Y6278D01*
G01X92380Y6173D01*
G01X92433Y6069D01*
G01X92433Y5861D01*
G01X91549Y6018D02*
G01X91237Y6328D01*
G01X92225Y6725D02*
G01X92276Y6829D01*
G01X92433Y6984D01*
G01X91341Y6984D01*
G01X91809Y7327D02*
G01X91809Y8261D01*
G01X92433Y8604D02*
G01X91341Y8604D01*
G01X92433Y8604D02*
G01X92433Y8970D01*
G01X92380Y9125D01*
G01X92276Y9229D01*
G01X92174Y9280D01*
G01X92017Y9333D01*
G01X91758Y9333D01*
G01X91603Y9280D01*
G01X91499Y9229D01*
G01X91394Y9125D01*
G01X91341Y8970D01*
G01X91341Y8604D01*
G01X92225Y9676D02*
G01X92276Y9780D01*
G01X92433Y9935D01*
G01X91341Y9935D01*
G01X92308Y15710D02*
G01X91215Y15710D01*
G01X92308Y15710D02*
G01X92308Y16178D01*
G01X92254Y16333D01*
G01X92204Y16386D01*
G01X92099Y16437D01*
G01X91995Y16437D01*
G01X91891Y16386D01*
G01X91838Y16333D01*
G01X91787Y16178D01*
G01X91787Y15710D01*
G01X91787Y16074D02*
G01X91215Y16437D01*
G01X92308Y16884D02*
G01X92308Y17455D01*
G01X91891Y17143D01*
G01X91891Y17300D01*
G01X91838Y17405D01*
G01X91787Y17455D01*
G01X91632Y17509D01*
G01X91528Y17509D01*
G01X91370Y17455D01*
G01X91266Y17351D01*
G01X91215Y17196D01*
G01X91215Y17039D01*
G01X91266Y16884D01*
G01X91320Y16833D01*
G01X91424Y16780D01*
G01X91683Y17852D02*
G01X91683Y18786D01*
G01X92308Y19129D02*
G01X91215Y19129D01*
G01X92308Y19129D02*
G01X92308Y19493D01*
G01X92254Y19647D01*
G01X92150Y19752D01*
G01X92046Y19805D01*
G01X91891Y19856D01*
G01X91632Y19856D01*
G01X91475Y19805D01*
G01X91370Y19752D01*
G01X91266Y19647D01*
G01X91215Y19493D01*
G01X91215Y19129D01*
G01X92099Y20199D02*
G01X92150Y20303D01*
G01X92308Y20458D01*
G01X91215Y20458D01*
G01X88874Y15710D02*
G01X87784Y15710D01*
G01X88874Y15710D02*
G01X88874Y16178D01*
G01X88823Y16333D01*
G01X88772Y16386D01*
G01X88668Y16437D01*
G01X88564Y16437D01*
G01X88460Y16386D01*
G01X88406Y16333D01*
G01X88356Y16178D01*
G01X88356Y15710D01*
G01X88356Y16074D02*
G01X87784Y16437D01*
G01X88615Y16833D02*
G01X88668Y16833D01*
G01X88772Y16884D01*
G01X88823Y16937D01*
G01X88874Y17039D01*
G01X88874Y17247D01*
G01X88823Y17351D01*
G01X88772Y17405D01*
G01X88668Y17455D01*
G01X88564Y17455D01*
G01X88460Y17405D01*
G01X88302Y17300D01*
G01X87784Y16780D01*
G01X87784Y17509D01*
G01X88251Y17852D02*
G01X88251Y18786D01*
G01X88874Y19129D02*
G01X87784Y19129D01*
G01X88874Y19129D02*
G01X88874Y19492D01*
G01X88823Y19647D01*
G01X88719Y19752D01*
G01X88615Y19805D01*
G01X88460Y19856D01*
G01X88201Y19856D01*
G01X88043Y19805D01*
G01X87939Y19752D01*
G01X87835Y19647D01*
G01X87784Y19492D01*
G01X87784Y19129D01*
G01X88668Y20199D02*
G01X88719Y20303D01*
G01X88874Y20458D01*
G01X87784Y20458D01*
G01X96088Y9189D02*
G01X95254Y9189D01*
G01X95099Y9138D01*
G01X95049Y9085D01*
G01X94995Y8981D01*
G01X94995Y8879D01*
G01X95049Y8775D01*
G01X95099Y8722D01*
G01X95254Y8671D01*
G01X95359Y8671D01*
G01X96088Y9532D02*
G01X94995Y9532D01*
G01X96088Y9532D02*
G01X94995Y9949D01*
G01X96088Y10365D02*
G01X94995Y9949D01*
G01X96088Y10365D02*
G01X94995Y10365D01*
G01X96088Y10708D02*
G01X94995Y10708D01*
G01X96088Y10708D02*
G01X96088Y11176D01*
G01X96034Y11331D01*
G01X95983Y11381D01*
G01X95879Y11435D01*
G01X95724Y11435D01*
G01X95620Y11381D01*
G01X95567Y11331D01*
G01X95516Y11176D01*
G01X95516Y10708D01*
G01X95826Y11828D02*
G01X95879Y11828D01*
G01X95983Y11882D01*
G01X96034Y11932D01*
G01X96088Y12037D01*
G01X96088Y12245D01*
G01X96034Y12349D01*
G01X95983Y12400D01*
G01X95879Y12453D01*
G01X95775Y12453D01*
G01X95671Y12400D01*
G01X95516Y12296D01*
G01X94995Y11778D01*
G01X94995Y12504D01*
G01X95463Y12847D02*
G01X95463Y13782D01*
G01X96088Y14125D02*
G01X94995Y14125D01*
G01X96088Y14125D02*
G01X96088Y14490D01*
G01X96034Y14645D01*
G01X95930Y14749D01*
G01X95826Y14800D01*
G01X95671Y14853D01*
G01X95412Y14853D01*
G01X95254Y14800D01*
G01X95153Y14749D01*
G01X95049Y14645D01*
G01X94995Y14490D01*
G01X94995Y14125D01*
G01X95879Y15196D02*
G01X95930Y15301D01*
G01X96088Y15455D01*
G01X94995Y15455D01*
G01X90530Y15710D02*
G01X89437Y15710D01*
G01X90530Y15710D02*
G01X90530Y16178D01*
G01X90476Y16333D01*
G01X90425Y16386D01*
G01X90321Y16437D01*
G01X90217Y16437D01*
G01X90113Y16386D01*
G01X90060Y16333D01*
G01X90009Y16178D01*
G01X90009Y15710D01*
G01X90009Y16074D02*
G01X89437Y16437D01*
G01X90321Y16780D02*
G01X90372Y16884D01*
G01X90530Y17039D01*
G01X89437Y17039D01*
G01X89905Y17382D02*
G01X89905Y18319D01*
G01X90530Y18662D02*
G01X89437Y18662D01*
G01X90530Y18662D02*
G01X90530Y19025D01*
G01X90476Y19180D01*
G01X90372Y19284D01*
G01X90268Y19338D01*
G01X90113Y19388D01*
G01X89854Y19388D01*
G01X89696Y19338D01*
G01X89592Y19284D01*
G01X89488Y19180D01*
G01X89437Y19025D01*
G01X89437Y18662D01*
G01X90321Y19731D02*
G01X90372Y19835D01*
G01X90530Y19990D01*
G01X89437Y19990D01*
G01X72590Y8938D02*
G01X71759Y8938D01*
G01X71604Y8884D01*
G01X71551Y8834D01*
G01X71500Y8730D01*
G01X71500Y8625D01*
G01X71551Y8521D01*
G01X71604Y8468D01*
G01X71759Y8417D01*
G01X71864Y8417D01*
G01X72590Y9281D02*
G01X71500Y9281D01*
G01X72590Y9281D02*
G01X71500Y9695D01*
G01X72590Y10111D02*
G01X71500Y9695D01*
G01X72590Y10111D02*
G01X71500Y10111D01*
G01X72590Y10454D02*
G01X71500Y10454D01*
G01X72590Y10454D02*
G01X72590Y10922D01*
G01X72539Y11077D01*
G01X72488Y11130D01*
G01X72384Y11181D01*
G01X72227Y11181D01*
G01X72123Y11130D01*
G01X72072Y11077D01*
G01X72018Y10922D01*
G01X72018Y10454D01*
G01X72384Y11524D02*
G01X72435Y11628D01*
G01X72590Y11783D01*
G01X71500Y11783D01*
G01X71968Y12126D02*
G01X71968Y13063D01*
G01X72590Y13406D02*
G01X71500Y13406D01*
G01X72590Y13406D02*
G01X72590Y13769D01*
G01X72539Y13924D01*
G01X72435Y14028D01*
G01X72331Y14081D01*
G01X72176Y14132D01*
G01X71917Y14132D01*
G01X71759Y14081D01*
G01X71655Y14028D01*
G01X71551Y13924D01*
G01X71500Y13769D01*
G01X71500Y13406D01*
G01X72331Y14526D02*
G01X72384Y14526D01*
G01X72488Y14579D01*
G01X72539Y14630D01*
G01X72590Y14734D01*
G01X72590Y14942D01*
G01X72539Y15047D01*
G01X72488Y15097D01*
G01X72384Y15151D01*
G01X72280Y15151D01*
G01X72176Y15097D01*
G01X72018Y14996D01*
G01X71500Y14475D01*
G01X71500Y15201D01*
G01X80441Y5837D02*
G01X80390Y5732D01*
G01X80286Y5628D01*
G01X80182Y5575D01*
G01X80027Y5524D01*
G01X79768Y5524D01*
G01X79611Y5575D01*
G01X79506Y5628D01*
G01X79402Y5732D01*
G01X79351Y5837D01*
G01X79351Y6045D01*
G01X79402Y6146D01*
G01X79506Y6251D01*
G01X79611Y6304D01*
G01X79768Y6355D01*
G01X80027Y6355D01*
G01X80182Y6304D01*
G01X80286Y6251D01*
G01X80390Y6146D01*
G01X80441Y6045D01*
G01X80441Y5837D01*
G01X79560Y5991D02*
G01X79247Y6304D01*
G01X80235Y6698D02*
G01X80286Y6802D01*
G01X80441Y6959D01*
G01X79351Y6959D01*
G01X79819Y7302D02*
G01X79819Y8237D01*
G01X80441Y8580D02*
G01X79351Y8580D01*
G01X80441Y8580D02*
G01X80441Y8943D01*
G01X80390Y9098D01*
G01X80286Y9202D01*
G01X80182Y9255D01*
G01X80027Y9306D01*
G01X79768Y9306D01*
G01X79611Y9255D01*
G01X79506Y9202D01*
G01X79402Y9098D01*
G01X79351Y8943D01*
G01X79351Y8580D01*
G01X80182Y9702D02*
G01X80235Y9702D01*
G01X80340Y9753D01*
G01X80390Y9804D01*
G01X80441Y9908D01*
G01X80441Y10116D01*
G01X80390Y10221D01*
G01X80340Y10274D01*
G01X80235Y10325D01*
G01X80131Y10325D01*
G01X80027Y10274D01*
G01X79870Y10170D01*
G01X79351Y9649D01*
G01X79351Y10376D01*
G01X80238Y15709D02*
G01X79148Y15709D01*
G01X80238Y15709D02*
G01X80238Y16177D01*
G01X80187Y16332D01*
G01X80136Y16385D01*
G01X80032Y16436D01*
G01X79928Y16436D01*
G01X79824Y16385D01*
G01X79771Y16332D01*
G01X79720Y16177D01*
G01X79720Y15709D01*
G01X79720Y16072D02*
G01X79148Y16436D01*
G01X80238Y16883D02*
G01X80238Y17454D01*
G01X79824Y17144D01*
G01X79824Y17299D01*
G01X79771Y17403D01*
G01X79720Y17454D01*
G01X79565Y17508D01*
G01X79461Y17508D01*
G01X79303Y17454D01*
G01X79199Y17350D01*
G01X79148Y17195D01*
G01X79148Y17040D01*
G01X79199Y16883D01*
G01X79252Y16832D01*
G01X79357Y16779D01*
G01X79616Y17850D02*
G01X79616Y18785D01*
G01X80238Y19128D02*
G01X79148Y19128D01*
G01X80238Y19128D02*
G01X80238Y19491D01*
G01X80187Y19646D01*
G01X80083Y19750D01*
G01X79979Y19804D01*
G01X79824Y19855D01*
G01X79565Y19855D01*
G01X79407Y19804D01*
G01X79303Y19750D01*
G01X79199Y19646D01*
G01X79148Y19491D01*
G01X79148Y19128D01*
G01X79979Y20251D02*
G01X80032Y20251D01*
G01X80136Y20302D01*
G01X80187Y20355D01*
G01X80238Y20459D01*
G01X80238Y20665D01*
G01X80187Y20769D01*
G01X80136Y20822D01*
G01X80032Y20873D01*
G01X79928Y20873D01*
G01X79824Y20822D01*
G01X79666Y20718D01*
G01X79148Y20197D01*
G01X79148Y20926D01*
G01X76809Y15709D02*
G01X75719Y15709D01*
G01X76809Y15709D02*
G01X76809Y16177D01*
G01X76758Y16332D01*
G01X76707Y16385D01*
G01X76603Y16436D01*
G01X76499Y16436D01*
G01X76395Y16385D01*
G01X76342Y16332D01*
G01X76291Y16177D01*
G01X76291Y15709D01*
G01X76291Y16072D02*
G01X75719Y16436D01*
G01X76550Y16832D02*
G01X76603Y16832D01*
G01X76707Y16883D01*
G01X76758Y16936D01*
G01X76809Y17040D01*
G01X76809Y17246D01*
G01X76758Y17350D01*
G01X76707Y17403D01*
G01X76603Y17454D01*
G01X76499Y17454D01*
G01X76395Y17403D01*
G01X76237Y17299D01*
G01X75719Y16779D01*
G01X75719Y17508D01*
G01X76187Y17850D02*
G01X76187Y18785D01*
G01X76809Y19128D02*
G01X75719Y19128D01*
G01X76809Y19128D02*
G01X76809Y19491D01*
G01X76758Y19646D01*
G01X76654Y19750D01*
G01X76550Y19804D01*
G01X76395Y19855D01*
G01X76136Y19855D01*
G01X75978Y19804D01*
G01X75874Y19750D01*
G01X75770Y19646D01*
G01X75719Y19491D01*
G01X75719Y19128D01*
G01X76550Y20251D02*
G01X76603Y20251D01*
G01X76707Y20302D01*
G01X76758Y20355D01*
G01X76809Y20459D01*
G01X76809Y20665D01*
G01X76758Y20769D01*
G01X76707Y20822D01*
G01X76603Y20873D01*
G01X76499Y20873D01*
G01X76395Y20822D01*
G01X76237Y20718D01*
G01X75719Y20197D01*
G01X75719Y20926D01*
G01X78559Y15659D02*
G01X77469Y15659D01*
G01X78559Y15659D02*
G01X78559Y16126D01*
G01X78508Y16281D01*
G01X78457Y16334D01*
G01X78353Y16385D01*
G01X78249Y16385D01*
G01X78145Y16334D01*
G01X78092Y16281D01*
G01X78041Y16126D01*
G01X78041Y15659D01*
G01X78041Y16022D02*
G01X77469Y16385D01*
G01X78353Y16728D02*
G01X78404Y16832D01*
G01X78559Y16990D01*
G01X77469Y16990D01*
G01X77937Y17333D02*
G01X77937Y18267D01*
G01X78559Y18610D02*
G01X77469Y18610D01*
G01X78559Y18610D02*
G01X78559Y18973D01*
G01X78508Y19128D01*
G01X78404Y19232D01*
G01X78300Y19286D01*
G01X78145Y19337D01*
G01X77886Y19337D01*
G01X77728Y19286D01*
G01X77624Y19232D01*
G01X77520Y19128D01*
G01X77469Y18973D01*
G01X77469Y18610D01*
G01X78300Y19733D02*
G01X78353Y19733D01*
G01X78457Y19784D01*
G01X78508Y19837D01*
G01X78559Y19939D01*
G01X78559Y20147D01*
G01X78508Y20251D01*
G01X78457Y20304D01*
G01X78353Y20355D01*
G01X78249Y20355D01*
G01X78145Y20304D01*
G01X77988Y20200D01*
G01X77469Y19679D01*
G01X77469Y20408D01*
G01X84020Y7835D02*
G01X83189Y7835D01*
G01X83035Y7782D01*
G01X82981Y7731D01*
G01X82930Y7627D01*
G01X82930Y7523D01*
G01X82981Y7419D01*
G01X83035Y7366D01*
G01X83189Y7315D01*
G01X83294Y7315D01*
G01X84020Y8178D02*
G01X82930Y8178D01*
G01X84020Y8178D02*
G01X82930Y8592D01*
G01X84020Y9009D02*
G01X82930Y8592D01*
G01X84020Y9009D02*
G01X82930Y9009D01*
G01X84020Y9352D02*
G01X82930Y9352D01*
G01X84020Y9352D02*
G01X84020Y9819D01*
G01X83969Y9974D01*
G01X83918Y10027D01*
G01X83814Y10078D01*
G01X83657Y10078D01*
G01X83553Y10027D01*
G01X83502Y9974D01*
G01X83449Y9819D01*
G01X83449Y9352D01*
G01X83761Y10475D02*
G01X83814Y10475D01*
G01X83918Y10525D01*
G01X83969Y10579D01*
G01X84020Y10680D01*
G01X84020Y10889D01*
G01X83969Y10993D01*
G01X83918Y11046D01*
G01X83814Y11097D01*
G01X83710Y11097D01*
G01X83606Y11046D01*
G01X83449Y10942D01*
G01X82930Y10421D01*
G01X82930Y11150D01*
G01X83398Y11493D02*
G01X83398Y12428D01*
G01X84020Y12771D02*
G01X82930Y12771D01*
G01X84020Y12771D02*
G01X84020Y13134D01*
G01X83969Y13289D01*
G01X83865Y13393D01*
G01X83761Y13446D01*
G01X83606Y13497D01*
G01X83347Y13497D01*
G01X83189Y13446D01*
G01X83085Y13393D01*
G01X82981Y13289D01*
G01X82930Y13134D01*
G01X82930Y12771D01*
G01X83761Y13893D02*
G01X83814Y13893D01*
G01X83918Y13944D01*
G01X83969Y13995D01*
G01X84020Y14099D01*
G01X84020Y14307D01*
G01X83969Y14412D01*
G01X83918Y14465D01*
G01X83814Y14516D01*
G01X83710Y14516D01*
G01X83606Y14465D01*
G01X83449Y14361D01*
G01X82930Y13840D01*
G01X82930Y14566D01*
G54D10*
G75*
G01X18163Y37552D02*
G3X16131Y37552I-1016J1016D01*
G01*
G75*
G01X18163Y37552D02*
G3X16131Y37552I-1016J1016D01*
G01*
G75*
G01X17833Y38568D02*
G03X17833Y38568I-686J0D01*
G01*
G75*
G01X17401Y38568D02*
G03X17401Y38568I-254J0D01*
G01*
G75*
G01X17884Y35012D02*
G03X17884Y35012I-737J0D01*
G01*
G75*
G01X17884Y43140D02*
G03X17884Y43140I-737J0D01*
G01*
G75*
G01X17833Y38568D02*
G03X17833Y38568I-686J0D01*
G01*
G75*
G01X17401Y38568D02*
G03X17401Y38568I-254J0D01*
G01*
G75*
G01X17884Y35012D02*
G03X17884Y35012I-737J0D01*
G01*
G75*
G01X17884Y43140D02*
G03X17884Y43140I-737J0D01*
G01*
M00*
M02*
