G04 ---------------------------- Layer name :TOP SILK LAYER*
G04 EasyEDA v5.8.22, Wed, 05 Dec 2018 03:51:52 GMT*
G04 5ecc0feef65b44bfa0a9ec5bdeff4b52*
G04 Gerber Generator version 0.2*
G04 Scale: 100 percent, Rotated: No, Reflected: No *
G04 Dimensions in millimeters *
G04 leading zeros omitted , absolute positions ,3 integer and 3 decimal *
%FSLAX33Y33*%
%MOMM*%
G90*
G71D02*

%ADD10C,0.254000*%
%ADD11C,0.399999*%
%ADD43C,0.200000*%
%ADD44C,0.119990*%
%ADD45C,0.330200*%
%ADD46C,0.299999*%
%ADD47C,0.127000*%
%ADD48C,0.129032*%
%ADD49C,0.249999*%
%ADD50C,0.177800*%

%LPD*%
G54D10*
G01X40766Y20790D02*
G01X41401Y20155D01*
G01X42671Y20155D02*
G01X43306Y20790D01*
G01X43306Y20790D02*
G01X43941Y20155D01*
G01X45211Y20155D02*
G01X45846Y20790D01*
G01X45846Y20790D02*
G01X46481Y20155D01*
G01X47751Y20155D02*
G01X48386Y20790D01*
G01X40766Y20790D02*
G01X40766Y24600D01*
G01X40766Y24600D02*
G01X41401Y25235D01*
G01X41401Y25235D02*
G01X42671Y25235D01*
G01X42671Y25235D02*
G01X43306Y24600D01*
G01X43306Y24600D02*
G01X43941Y25235D01*
G01X43941Y25235D02*
G01X45211Y25235D01*
G01X45211Y25235D02*
G01X45846Y24600D01*
G01X45846Y24600D02*
G01X46481Y25235D01*
G01X46481Y25235D02*
G01X47751Y25235D01*
G01X47751Y25235D02*
G01X48386Y24600D01*
G01X43306Y24600D02*
G01X43306Y20790D01*
G01X45846Y24600D02*
G01X45846Y20790D01*
G01X48386Y24600D02*
G01X48386Y20790D01*
G01X46481Y20155D02*
G01X47751Y20155D01*
G01X43941Y20155D02*
G01X45211Y20155D01*
G01X41401Y20155D02*
G01X42671Y20155D01*
G01X42671Y19824D02*
G01X41401Y19824D01*
G01X41412Y8780D02*
G01X41313Y8780D01*
G01X41313Y13081D01*
G01X42613Y13081D01*
G01X42613Y8780D01*
G01X41412Y8780D01*
G01X40210Y10878D02*
G01X40210Y14879D01*
G01X43710Y14879D01*
G01X43710Y6878D01*
G01X40210Y6878D01*
G01X40210Y10878D01*
G01X67055Y15582D02*
G01X68071Y15582D01*
G01X67055Y4152D02*
G01X68071Y4152D01*
G01X64642Y6438D02*
G01X64642Y13296D01*
G01X63880Y6438D02*
G01X63880Y13296D01*
G01X67182Y13296D02*
G01X67182Y6438D01*
G01X63499Y4406D02*
G01X63499Y15328D01*
G01X63753Y4152D02*
G01X64769Y4152D01*
G01X63753Y15582D02*
G01X64769Y15582D01*
G01X67944Y13296D02*
G01X67944Y6438D01*
G01X68325Y4406D02*
G01X68325Y15328D01*
G01X66547Y10121D02*
G01X65277Y10121D01*
G01X65277Y10121D02*
G01X65277Y9613D01*
G01X65277Y9613D02*
G01X66547Y9613D01*
G01X66547Y9613D02*
G01X66547Y10121D01*
G01X66547Y10502D02*
G01X65912Y10502D01*
G01X65912Y10502D02*
G01X65277Y10502D01*
G01X65912Y10502D02*
G01X65912Y10883D01*
G01X66547Y9232D02*
G01X65912Y9232D01*
G01X65912Y9232D02*
G01X65277Y9232D01*
G01X65912Y9232D02*
G01X65912Y8851D01*
G01X5715Y12992D02*
G01X5715Y15158D01*
G01X414Y15158D01*
G01X414Y6159D01*
G01X5715Y6159D01*
G01X5715Y8326D02*
G01X5715Y6159D01*
G54D43*
G01X5166Y23370D02*
G01X2766Y23370D01*
G01X2766Y26370D01*
G01X5788Y26370D01*
G01X5788Y23370D01*
G01X5166Y23370D01*
G54D10*
G01X2Y34884D02*
G01X2Y43012D01*
G01X13972Y43012D01*
G01X8587Y34833D02*
G01X2Y34833D01*
G01X2Y34935D01*
G01X13108Y34833D02*
G01X13997Y34833D01*
G01X13997Y37627D01*
G01X13997Y42047D02*
G01X13997Y43012D01*
G54D44*
G01X13990Y23502D02*
G01X13990Y19743D01*
G01X15250Y19743D01*
G01X20810Y25753D02*
G01X20810Y19743D01*
G01X19550Y19743D01*
G54D10*
G01X11353Y23888D02*
G01X11353Y26479D01*
G01X13335Y26479D01*
G01X13335Y23888D01*
G54D45*
G01X13284Y25971D02*
G01X11404Y25971D01*
G54D10*
G01X13335Y22263D02*
G01X13335Y20220D01*
G01X11333Y20220D01*
G01X11333Y22263D01*
G01X21259Y23888D02*
G01X21259Y26479D01*
G01X23241Y26479D01*
G01X23241Y23888D01*
G54D45*
G01X23190Y25971D02*
G01X21310Y25971D01*
G54D10*
G01X23241Y22263D02*
G01X23241Y20220D01*
G01X21239Y20220D01*
G01X21239Y22263D01*
G01X6662Y20589D02*
G01X6662Y21249D01*
G01X6662Y20589D01*
G01X6662Y21249D01*
G01X7477Y21249D01*
G01X7477Y18331D02*
G01X6662Y18331D01*
G01X6662Y18989D01*
G54D43*
G01X8211Y19489D02*
G01X8211Y20088D01*
G54D10*
G01X13373Y29801D02*
G01X13373Y29141D01*
G01X13373Y29801D01*
G01X13373Y29141D01*
G01X12557Y29141D01*
G01X12557Y32062D02*
G01X13373Y32062D01*
G01X13373Y31402D01*
G54D43*
G01X11821Y30901D02*
G01X11821Y30302D01*
G54D10*
G01X18496Y12153D02*
G01X18496Y8900D01*
G01X28448Y8900D01*
G01X28448Y12583D01*
G01X18496Y12583D01*
G01X18496Y12153D01*
G01X34163Y15709D02*
G01X35179Y15709D01*
G01X34163Y4279D02*
G01X35179Y4279D01*
G01X31750Y6565D02*
G01X31750Y13423D01*
G01X30988Y6565D02*
G01X30988Y13423D01*
G01X34290Y13423D02*
G01X34290Y6565D01*
G01X30607Y4533D02*
G01X30607Y15455D01*
G01X30861Y4279D02*
G01X31877Y4279D01*
G01X30861Y15709D02*
G01X31877Y15709D01*
G01X35052Y13423D02*
G01X35052Y6565D01*
G01X35433Y4533D02*
G01X35433Y15455D01*
G01X33655Y10248D02*
G01X32385Y10248D01*
G01X32385Y10248D02*
G01X32385Y9740D01*
G01X32385Y9740D02*
G01X33655Y9740D01*
G01X33655Y9740D02*
G01X33655Y10248D01*
G01X33655Y10629D02*
G01X33020Y10629D01*
G01X33020Y10629D02*
G01X32385Y10629D01*
G01X33020Y10629D02*
G01X33020Y11010D01*
G01X33655Y9359D02*
G01X33020Y9359D01*
G01X33020Y9359D02*
G01X32385Y9359D01*
G01X33020Y9359D02*
G01X33020Y8978D01*
G01X7068Y14701D02*
G01X7068Y15407D01*
G01X8013Y16352D01*
G01X11569Y16352D01*
G01X11569Y14828D01*
G01X11569Y13431D02*
G01X11569Y11851D01*
G01X7940Y11851D01*
G01X7068Y12722D01*
G01X7068Y13431D01*
G01X85165Y8368D02*
G01X85165Y15531D01*
G01X85165Y8317D02*
G01X86112Y8317D01*
G01X86112Y8317D02*
G01X86544Y8317D01*
G01X86544Y8901D01*
G01X88677Y8901D01*
G01X88677Y8368D01*
G01X89084Y8368D01*
G01X89084Y8825D01*
G01X85165Y15531D02*
G01X92632Y15531D01*
G01X92632Y8368D02*
G01X92632Y15531D01*
G01X89076Y8393D02*
G01X89076Y8901D01*
G01X91184Y8901D01*
G01X91184Y8368D01*
G01X92632Y8368D01*
G01X89325Y4278D02*
G01X90874Y4278D01*
G01X90874Y6310D01*
G01X89325Y6310D01*
G01X88538Y4253D02*
G01X87064Y4253D01*
G01X86658Y4659D01*
G01X86658Y5929D01*
G01X87039Y6310D01*
G01X88563Y6310D01*
G01X89099Y4794D02*
G01X89099Y5795D01*
G01X89099Y5795D01*
G01X88599Y5294D01*
G01X88599Y5294D01*
G01X89099Y4794D01*
G01X86899Y4494D02*
G01X86899Y6095D01*
G01X73227Y8368D02*
G01X73227Y15531D01*
G01X73227Y8317D02*
G01X74174Y8317D01*
G01X74174Y8317D02*
G01X74606Y8317D01*
G01X74606Y8901D01*
G01X76739Y8901D01*
G01X76739Y8368D01*
G01X77146Y8368D01*
G01X77146Y8825D01*
G01X73227Y15531D02*
G01X80694Y15531D01*
G01X80694Y8368D02*
G01X80694Y15531D01*
G01X77138Y8393D02*
G01X77138Y8901D01*
G01X79246Y8901D01*
G01X79246Y8368D01*
G01X80694Y8368D01*
G01X77387Y4278D02*
G01X78936Y4278D01*
G01X78936Y6310D01*
G01X77387Y6310D01*
G01X76600Y4253D02*
G01X75126Y4253D01*
G01X74720Y4659D01*
G01X74720Y5929D01*
G01X75101Y6310D01*
G01X76625Y6310D01*
G01X77161Y4794D02*
G01X77161Y5795D01*
G01X77161Y5795D01*
G01X76661Y5294D01*
G01X76661Y5294D01*
G01X77161Y4794D01*
G01X74961Y4494D02*
G01X74961Y6095D01*
G01X38685Y33766D02*
G01X38685Y40929D01*
G01X38685Y33716D02*
G01X39632Y33716D01*
G01X39632Y33716D02*
G01X40064Y33716D01*
G01X40064Y34300D01*
G01X42197Y34300D01*
G01X42197Y33766D01*
G01X42604Y33766D01*
G01X42604Y34224D01*
G01X38685Y40929D02*
G01X46152Y40929D01*
G01X46152Y33766D02*
G01X46152Y40929D01*
G01X42596Y33792D02*
G01X42596Y34300D01*
G01X44704Y34300D01*
G01X44704Y33766D01*
G01X46152Y33766D01*
G01X42845Y29804D02*
G01X44395Y29804D01*
G01X44395Y31836D01*
G01X42845Y31836D01*
G01X42058Y29779D02*
G01X40585Y29779D01*
G01X40178Y30185D01*
G01X40178Y31455D01*
G01X40559Y31836D01*
G01X42083Y31836D01*
G01X42619Y30320D02*
G01X42619Y31320D01*
G01X42619Y31320D01*
G01X42119Y30820D01*
G01X42119Y30820D01*
G01X42619Y30320D01*
G01X40419Y30020D02*
G01X40419Y31620D01*
G01X49478Y33768D02*
G01X49478Y40931D01*
G01X49478Y33717D02*
G01X50425Y33717D01*
G01X50425Y33717D02*
G01X50857Y33717D01*
G01X50857Y34301D01*
G01X52990Y34301D01*
G01X52990Y33768D01*
G01X53397Y33768D01*
G01X53397Y34225D01*
G01X49478Y40931D02*
G01X56945Y40931D01*
G01X56945Y33768D02*
G01X56945Y40931D01*
G01X53389Y33793D02*
G01X53389Y34301D01*
G01X55497Y34301D01*
G01X55497Y33768D01*
G01X56945Y33768D01*
G01X53638Y29805D02*
G01X55188Y29805D01*
G01X55188Y31837D01*
G01X53638Y31837D01*
G01X52851Y29780D02*
G01X51378Y29780D01*
G01X50971Y30186D01*
G01X50971Y31456D01*
G01X51352Y31837D01*
G01X52876Y31837D01*
G01X53412Y30321D02*
G01X53412Y31322D01*
G01X53412Y31322D01*
G01X52912Y30821D01*
G01X52912Y30821D01*
G01X53412Y30321D01*
G01X51212Y30021D02*
G01X51212Y31622D01*
G01X25278Y42694D02*
G01X25278Y48493D01*
G01X25275Y42684D02*
G01X15276Y42684D01*
G01X15268Y42684D02*
G01X15268Y48475D01*
G01X25275Y48500D02*
G01X15276Y48500D01*
G01X24666Y43192D02*
G01X15852Y43192D01*
G01X24666Y43192D02*
G01X24666Y47967D01*
G01X15852Y43192D02*
G01X15852Y47967D01*
G01X24666Y47967D02*
G01X23447Y47967D01*
G01X17071Y47967D02*
G01X15852Y47967D01*
G01X22507Y47967D02*
G01X18062Y47967D01*
G01X23447Y47967D02*
G01X23447Y48500D01*
G01X22507Y47967D02*
G01X22507Y48500D01*
G01X18036Y47967D02*
G01X18036Y48500D01*
G01X17071Y47967D02*
G01X17071Y48500D01*
G01X18036Y49034D02*
G01X22481Y49034D01*
G01X18036Y49034D02*
G01X18036Y48500D01*
G01X22507Y49034D02*
G01X22507Y48500D01*
G01X36456Y42692D02*
G01X36456Y48491D01*
G01X36454Y42682D02*
G01X26454Y42682D01*
G01X26446Y42682D02*
G01X26446Y48473D01*
G01X36454Y48499D02*
G01X26454Y48499D01*
G01X35844Y43190D02*
G01X27030Y43190D01*
G01X35844Y43190D02*
G01X35844Y47965D01*
G01X27030Y43190D02*
G01X27030Y47965D01*
G01X35844Y47965D02*
G01X34625Y47965D01*
G01X28249Y47965D02*
G01X27030Y47965D01*
G01X33685Y47965D02*
G01X29240Y47965D01*
G01X34625Y47965D02*
G01X34625Y48499D01*
G01X33685Y47965D02*
G01X33685Y48499D01*
G01X29215Y47965D02*
G01X29215Y48499D01*
G01X28249Y47965D02*
G01X28249Y48499D01*
G01X29215Y49032D02*
G01X33660Y49032D01*
G01X29215Y49032D02*
G01X29215Y48499D01*
G01X33685Y49032D02*
G01X33685Y48499D01*
G01X47505Y42692D02*
G01X47505Y48491D01*
G01X47502Y42682D02*
G01X37502Y42682D01*
G01X37495Y42682D02*
G01X37495Y48473D01*
G01X47502Y48499D02*
G01X37502Y48499D01*
G01X46893Y43190D02*
G01X38079Y43190D01*
G01X46893Y43190D02*
G01X46893Y47965D01*
G01X38079Y43190D02*
G01X38079Y47965D01*
G01X46893Y47965D02*
G01X45674Y47965D01*
G01X39298Y47965D02*
G01X38079Y47965D01*
G01X44734Y47965D02*
G01X40289Y47965D01*
G01X45674Y47965D02*
G01X45674Y48499D01*
G01X44734Y47965D02*
G01X44734Y48499D01*
G01X40263Y47965D02*
G01X40263Y48499D01*
G01X39298Y47965D02*
G01X39298Y48499D01*
G01X40263Y49032D02*
G01X44708Y49032D01*
G01X40263Y49032D02*
G01X40263Y48499D01*
G01X44734Y49032D02*
G01X44734Y48499D01*
G01X58296Y42695D02*
G01X58296Y48494D01*
G01X58293Y42685D02*
G01X48293Y42685D01*
G01X48286Y42685D02*
G01X48286Y48476D01*
G01X58293Y48502D02*
G01X48293Y48502D01*
G01X57684Y43193D02*
G01X48870Y43193D01*
G01X57684Y43193D02*
G01X57684Y47968D01*
G01X48870Y43193D02*
G01X48870Y47968D01*
G01X57684Y47968D02*
G01X56465Y47968D01*
G01X50089Y47968D02*
G01X48870Y47968D01*
G01X55525Y47968D02*
G01X51080Y47968D01*
G01X56465Y47968D02*
G01X56465Y48502D01*
G01X55525Y47968D02*
G01X55525Y48502D01*
G01X51054Y47968D02*
G01X51054Y48502D01*
G01X50089Y47968D02*
G01X50089Y48502D01*
G01X51054Y49035D02*
G01X55499Y49035D01*
G01X51054Y49035D02*
G01X51054Y48502D01*
G01X55525Y49035D02*
G01X55525Y48502D01*
G54D46*
G01X90737Y34931D02*
G01X85149Y34931D01*
G01X76906Y37342D02*
G01X92535Y37352D01*
G01X92535Y18523D01*
G01X76924Y18543D01*
G01X83307Y25279D02*
G01X83307Y27121D01*
G01X85972Y27121D01*
G01X85972Y23565D01*
G01X83307Y23565D01*
G01X83307Y25472D01*
G01X78735Y25472D01*
G01X78735Y22732D01*
G01X90737Y22732D02*
G01X90737Y25279D01*
G01X85972Y25279D01*
G01X84737Y20733D02*
G01X81108Y20733D01*
G01X81108Y29369D01*
G01X84107Y29369D01*
G01X84133Y29391D01*
G01X84133Y33407D01*
G01X84133Y33915D01*
G01X84115Y33953D02*
G01X82591Y35477D01*
G54D10*
G01X76876Y18543D02*
G01X76876Y18533D01*
G01X76876Y37372D01*
G01X76876Y37372D01*
G01X78735Y34863D02*
G01X82814Y34863D01*
G54D46*
G01X74098Y34933D02*
G01X68510Y34933D01*
G01X60267Y37343D02*
G01X75896Y37353D01*
G01X75896Y18524D01*
G01X60285Y18545D01*
G01X66668Y25281D02*
G01X66668Y27122D01*
G01X69333Y27122D01*
G01X69333Y23566D01*
G01X66668Y23566D01*
G01X66668Y25474D01*
G01X62096Y25474D01*
G01X62096Y22733D01*
G01X74098Y22733D02*
G01X74098Y25281D01*
G01X69333Y25281D01*
G01X68098Y20734D02*
G01X64469Y20734D01*
G01X64469Y29370D01*
G01X67468Y29370D01*
G01X67494Y29393D01*
G01X67494Y33409D01*
G01X67494Y33917D01*
G01X67476Y33955D02*
G01X65952Y35479D01*
G54D10*
G01X60237Y18545D02*
G01X60237Y18534D01*
G01X60237Y37374D01*
G01X60237Y37374D01*
G01X62096Y34864D02*
G01X66175Y34864D01*
G01X76508Y49904D02*
G01X92909Y49904D01*
G01X76508Y49904D02*
G01X76508Y37903D01*
G01X92909Y49904D02*
G01X92909Y37903D01*
G01X76508Y37903D02*
G01X92909Y37903D01*
G01X84019Y49904D02*
G01X84019Y37903D01*
G01X85398Y49904D02*
G01X85398Y37903D01*
G01X77230Y49904D02*
G01X77230Y37905D01*
G01X92297Y49904D02*
G01X92297Y37905D01*
G01X77240Y41954D02*
G01X83988Y41954D01*
G01X77240Y45912D02*
G01X83988Y45912D01*
G01X78769Y43902D02*
G01X82640Y43902D01*
G01X82668Y43933D01*
G01X80689Y45884D02*
G01X80689Y41954D01*
G01X85487Y41985D02*
G01X92238Y41985D01*
G01X85487Y45942D02*
G01X92238Y45942D01*
G01X87019Y43935D02*
G01X90887Y43935D01*
G01X90918Y43966D01*
G01X88939Y45914D02*
G01X88939Y41985D01*
G01X59619Y49903D02*
G01X76020Y49903D01*
G01X59619Y49903D02*
G01X59619Y37901D01*
G01X76020Y49903D02*
G01X76020Y37901D01*
G01X59619Y37901D02*
G01X76020Y37901D01*
G01X67130Y49903D02*
G01X67130Y37901D01*
G01X68509Y49903D02*
G01X68509Y37901D01*
G01X60341Y49903D02*
G01X60341Y37904D01*
G01X75408Y49903D02*
G01X75408Y37904D01*
G01X60351Y41953D02*
G01X67100Y41953D01*
G01X60351Y45910D02*
G01X67100Y45910D01*
G01X61880Y43901D02*
G01X65751Y43901D01*
G01X65779Y43931D01*
G01X63800Y45882D02*
G01X63800Y41953D01*
G01X68598Y41983D02*
G01X75349Y41983D01*
G01X68598Y45941D02*
G01X75349Y45941D01*
G01X70130Y43934D02*
G01X73998Y43934D01*
G01X74029Y43964D01*
G01X72050Y45913D02*
G01X72050Y41983D01*
G54D47*
G01X94617Y19931D02*
G01X94617Y21201D01*
G01X94617Y20185D02*
G01X94998Y20185D01*
G01X94998Y20185D02*
G01X94617Y20947D01*
G01X94617Y20947D02*
G01X94998Y20947D01*
G01X94617Y20185D02*
G01X94236Y20185D01*
G01X94236Y20185D02*
G01X94617Y20947D01*
G01X94617Y20947D02*
G01X94236Y20947D01*
G54D10*
G01X93368Y22565D02*
G01X95867Y22565D01*
G01X95867Y22565D02*
G01X95867Y18567D01*
G01X95867Y18567D02*
G01X93368Y18567D01*
G01X93368Y18567D02*
G01X93368Y22565D01*
G01X93373Y21422D02*
G01X95862Y21422D01*
G54D47*
G01X57912Y19932D02*
G01X57912Y21202D01*
G01X57912Y20186D02*
G01X58293Y20186D01*
G01X58293Y20186D02*
G01X57912Y20948D01*
G01X57912Y20948D02*
G01X58293Y20948D01*
G01X57912Y20186D02*
G01X57531Y20186D01*
G01X57531Y20186D02*
G01X57912Y20948D01*
G01X57912Y20948D02*
G01X57531Y20948D01*
G54D10*
G01X56663Y22566D02*
G01X59162Y22566D01*
G01X59162Y22566D02*
G01X59162Y18568D01*
G01X59162Y18568D02*
G01X56663Y18568D01*
G01X56663Y18568D02*
G01X56663Y22566D01*
G01X56668Y21423D02*
G01X59157Y21423D01*
G01X25276Y34821D02*
G01X25276Y40620D01*
G01X25273Y34811D02*
G01X15273Y34811D01*
G01X15266Y34811D02*
G01X15266Y40602D01*
G01X25273Y40628D02*
G01X15273Y40628D01*
G01X24664Y35319D02*
G01X15850Y35319D01*
G01X24664Y35319D02*
G01X24664Y40094D01*
G01X15850Y35319D02*
G01X15850Y40094D01*
G01X24664Y40094D02*
G01X23445Y40094D01*
G01X17069Y40094D02*
G01X15850Y40094D01*
G01X22505Y40094D02*
G01X18060Y40094D01*
G01X23445Y40094D02*
G01X23445Y40628D01*
G01X22505Y40094D02*
G01X22505Y40628D01*
G01X18034Y40094D02*
G01X18034Y40628D01*
G01X17069Y40094D02*
G01X17069Y40628D01*
G01X18034Y41161D02*
G01X22479Y41161D01*
G01X18034Y41161D02*
G01X18034Y40628D01*
G01X22505Y41161D02*
G01X22505Y40628D01*
G01X36454Y34820D02*
G01X36454Y40619D01*
G01X36451Y34810D02*
G01X26452Y34810D01*
G01X26444Y34810D02*
G01X26444Y40601D01*
G01X36451Y40626D02*
G01X26452Y40626D01*
G01X35842Y35318D02*
G01X27028Y35318D01*
G01X35842Y35318D02*
G01X35842Y40093D01*
G01X27028Y35318D02*
G01X27028Y40093D01*
G01X35842Y40093D02*
G01X34623Y40093D01*
G01X28247Y40093D02*
G01X27028Y40093D01*
G01X33683Y40093D02*
G01X29238Y40093D01*
G01X34623Y40093D02*
G01X34623Y40626D01*
G01X33683Y40093D02*
G01X33683Y40626D01*
G01X29212Y40093D02*
G01X29212Y40626D01*
G01X28247Y40093D02*
G01X28247Y40626D01*
G01X29212Y41160D02*
G01X33657Y41160D01*
G01X29212Y41160D02*
G01X29212Y40626D01*
G01X33683Y41160D02*
G01X33683Y40626D01*
G01X25278Y27327D02*
G01X25278Y33126D01*
G01X25275Y27317D02*
G01X15276Y27317D01*
G01X15268Y27317D02*
G01X15268Y33108D01*
G01X25275Y33133D02*
G01X15276Y33133D01*
G01X24666Y27825D02*
G01X15852Y27825D01*
G01X24666Y27825D02*
G01X24666Y32600D01*
G01X15852Y27825D02*
G01X15852Y32600D01*
G01X24666Y32600D02*
G01X23447Y32600D01*
G01X17071Y32600D02*
G01X15852Y32600D01*
G01X22507Y32600D02*
G01X18062Y32600D01*
G01X23447Y32600D02*
G01X23447Y33133D01*
G01X22507Y32600D02*
G01X22507Y33133D01*
G01X18036Y32600D02*
G01X18036Y33133D01*
G01X17071Y32600D02*
G01X17071Y33133D01*
G01X18036Y33667D02*
G01X22481Y33667D01*
G01X18036Y33667D02*
G01X18036Y33133D01*
G01X22507Y33667D02*
G01X22507Y33133D01*
G01X36452Y27328D02*
G01X36452Y33127D01*
G01X36449Y27318D02*
G01X26449Y27318D01*
G01X26442Y27318D02*
G01X26442Y33109D01*
G01X36449Y33135D02*
G01X26449Y33135D01*
G01X35840Y27826D02*
G01X27026Y27826D01*
G01X35840Y27826D02*
G01X35840Y32601D01*
G01X27026Y27826D02*
G01X27026Y32601D01*
G01X35840Y32601D02*
G01X34621Y32601D01*
G01X28245Y32601D02*
G01X27026Y32601D01*
G01X33681Y32601D02*
G01X29236Y32601D01*
G01X34621Y32601D02*
G01X34621Y33135D01*
G01X33681Y32601D02*
G01X33681Y33135D01*
G01X29210Y32601D02*
G01X29210Y33135D01*
G01X28245Y32601D02*
G01X28245Y33135D01*
G01X29210Y33668D02*
G01X33655Y33668D01*
G01X29210Y33668D02*
G01X29210Y33135D01*
G01X33681Y33668D02*
G01X33681Y33135D01*
G01X50655Y6393D02*
G01X50655Y13403D01*
G01X50655Y13403D02*
G01X57665Y13403D01*
G01X57665Y13403D02*
G01X57665Y6748D01*
G01X57310Y6393D02*
G01X50655Y6393D01*
G01X57310Y6393D02*
G01X57665Y6748D01*
G54D48*
G01X60421Y11346D02*
G01X60990Y11346D01*
G01X60421Y10675D02*
G01X60990Y10675D01*
G01X60421Y10469D02*
G01X60990Y10469D01*
G01X60990Y10469D02*
G01X60990Y11551D01*
G01X60990Y11551D02*
G01X60421Y11551D01*
G01X60421Y11551D02*
G01X60421Y10469D01*
G01X60423Y9058D02*
G01X60992Y9058D01*
G01X60423Y8388D02*
G01X60992Y8388D01*
G01X60423Y8182D02*
G01X60992Y8182D01*
G01X60992Y8182D02*
G01X60992Y9264D01*
G01X60992Y9264D02*
G01X60423Y9264D01*
G01X60423Y9264D02*
G01X60423Y8182D01*
G01X48104Y11090D02*
G01X48673Y11090D01*
G01X48104Y10420D02*
G01X48673Y10420D01*
G01X48104Y10214D02*
G01X48673Y10214D01*
G01X48673Y10214D02*
G01X48673Y11296D01*
G01X48673Y11296D02*
G01X48104Y11296D01*
G01X48104Y11296D02*
G01X48104Y10214D01*
G01X69565Y11854D02*
G01X70134Y11854D01*
G01X69565Y11183D02*
G01X70134Y11183D01*
G01X69565Y10977D02*
G01X70134Y10977D01*
G01X70134Y10977D02*
G01X70134Y12059D01*
G01X70134Y12059D02*
G01X69565Y12059D01*
G01X69565Y12059D02*
G01X69565Y10977D01*
G01X70134Y7881D02*
G01X69565Y7881D01*
G01X70134Y8552D02*
G01X69565Y8552D01*
G01X70134Y8757D02*
G01X69565Y8757D01*
G01X69565Y8757D02*
G01X69565Y7675D01*
G01X69565Y7675D02*
G01X70134Y7675D01*
G01X70134Y7675D02*
G01X70134Y8757D01*
G01X16718Y9390D02*
G01X16718Y8821D01*
G01X16047Y9390D02*
G01X16047Y8821D01*
G01X15841Y9390D02*
G01X15841Y8821D01*
G01X15841Y8821D02*
G01X16923Y8821D01*
G01X16923Y8821D02*
G01X16923Y9390D01*
G01X16923Y9390D02*
G01X15841Y9390D01*
G01X36799Y11854D02*
G01X37368Y11854D01*
G01X36799Y11183D02*
G01X37368Y11183D01*
G01X36799Y10977D02*
G01X37368Y10977D01*
G01X37368Y10977D02*
G01X37368Y12059D01*
G01X37368Y12059D02*
G01X36799Y12059D01*
G01X36799Y12059D02*
G01X36799Y10977D01*
G01X37370Y8134D02*
G01X36801Y8134D01*
G01X37370Y8804D02*
G01X36801Y8804D01*
G01X37370Y9010D02*
G01X36801Y9010D01*
G01X36801Y9010D02*
G01X36801Y7928D01*
G01X36801Y7928D02*
G01X37370Y7928D01*
G01X37370Y7928D02*
G01X37370Y9010D01*
G01X16718Y12692D02*
G01X16718Y12123D01*
G01X16047Y12692D02*
G01X16047Y12123D01*
G01X15841Y12692D02*
G01X15841Y12123D01*
G01X15841Y12123D02*
G01X16923Y12123D01*
G01X16923Y12123D02*
G01X16923Y12692D01*
G01X16923Y12692D02*
G01X15841Y12692D01*
G01X23034Y15550D02*
G01X23034Y16119D01*
G01X23705Y15550D02*
G01X23705Y16119D01*
G01X23911Y15550D02*
G01X23911Y16119D01*
G01X23911Y16119D02*
G01X22828Y16119D01*
G01X22828Y16119D02*
G01X22828Y15550D01*
G01X22828Y15550D02*
G01X23911Y15550D01*
G54D47*
G01X44160Y26731D02*
G01X44056Y26835D01*
G01X43901Y26885D01*
G01X43693Y26885D01*
G01X43538Y26835D01*
G01X43433Y26731D01*
G01X43433Y26626D01*
G01X43484Y26522D01*
G01X43538Y26471D01*
G01X43642Y26418D01*
G01X43954Y26314D01*
G01X44056Y26263D01*
G01X44109Y26212D01*
G01X44160Y26108D01*
G01X44160Y25951D01*
G01X44056Y25847D01*
G01X43901Y25796D01*
G01X43693Y25796D01*
G01X43538Y25847D01*
G01X43433Y25951D01*
G01X44503Y26885D02*
G01X44503Y25796D01*
G01X44503Y26885D02*
G01X44970Y26885D01*
G01X45128Y26835D01*
G01X45178Y26784D01*
G01X45232Y26680D01*
G01X45232Y26522D01*
G01X45178Y26418D01*
G01X45128Y26367D01*
G01X44970Y26314D01*
G01X44503Y26314D01*
G01X45575Y26885D02*
G01X45575Y25796D01*
G54D50*
G01X44068Y8356D02*
G01X45158Y8356D01*
G01X44068Y8356D02*
G01X44068Y8824D01*
G01X44119Y8978D01*
G01X44170Y9032D01*
G01X44274Y9083D01*
G01X44378Y9083D01*
G01X44482Y9032D01*
G01X44536Y8978D01*
G01X44587Y8824D01*
G01X44587Y8356D01*
G01X44587Y8719D02*
G01X45158Y9083D01*
G01X44223Y10154D02*
G01X44119Y10050D01*
G01X44068Y9893D01*
G01X44068Y9687D01*
G01X44119Y9530D01*
G01X44223Y9425D01*
G01X44328Y9425D01*
G01X44432Y9479D01*
G01X44482Y9530D01*
G01X44536Y9634D01*
G01X44640Y9946D01*
G01X44691Y10050D01*
G01X44742Y10101D01*
G01X44846Y10154D01*
G01X45003Y10154D01*
G01X45107Y10050D01*
G01X45158Y9893D01*
G01X45158Y9687D01*
G01X45107Y9530D01*
G01X45003Y9425D01*
G01X44068Y10861D02*
G01X45158Y10861D01*
G01X44068Y10497D02*
G01X44068Y11224D01*
G01X44223Y12293D02*
G01X44119Y12192D01*
G01X44068Y12034D01*
G01X44068Y11826D01*
G01X44119Y11671D01*
G01X44223Y11567D01*
G01X44328Y11567D01*
G01X44432Y11620D01*
G01X44482Y11671D01*
G01X44536Y11775D01*
G01X44640Y12087D01*
G01X44691Y12192D01*
G01X44742Y12242D01*
G01X44846Y12293D01*
G01X45003Y12293D01*
G01X45107Y12192D01*
G01X45158Y12034D01*
G01X45158Y11826D01*
G01X45107Y11671D01*
G01X45003Y11567D01*
G01X44068Y12636D02*
G01X45158Y12898D01*
G01X44068Y13157D02*
G01X45158Y12898D01*
G01X44068Y13157D02*
G01X45158Y13416D01*
G01X44068Y13677D02*
G01X45158Y13416D01*
G01X61975Y9171D02*
G01X63065Y9898D01*
G01X61975Y9898D02*
G01X63065Y9171D01*
G01X62181Y10241D02*
G01X62130Y10345D01*
G01X61975Y10502D01*
G01X63065Y10502D01*
G01X2552Y9372D02*
G01X3329Y9372D01*
G01X3487Y9423D01*
G01X3591Y9527D01*
G01X3642Y9685D01*
G01X3642Y9789D01*
G01X3591Y9944D01*
G01X3487Y10048D01*
G01X3329Y10099D01*
G01X2552Y10099D01*
G01X2707Y11170D02*
G01X2603Y11066D01*
G01X2552Y10909D01*
G01X2552Y10703D01*
G01X2603Y10546D01*
G01X2707Y10442D01*
G01X2811Y10442D01*
G01X2915Y10495D01*
G01X2966Y10546D01*
G01X3020Y10650D01*
G01X3124Y10962D01*
G01X3175Y11066D01*
G01X3225Y11117D01*
G01X3329Y11170D01*
G01X3487Y11170D01*
G01X3591Y11066D01*
G01X3642Y10909D01*
G01X3642Y10703D01*
G01X3591Y10546D01*
G01X3487Y10442D01*
G01X2552Y11513D02*
G01X3642Y11513D01*
G01X2552Y11513D02*
G01X2552Y11981D01*
G01X2603Y12136D01*
G01X2654Y12189D01*
G01X2758Y12240D01*
G01X2862Y12240D01*
G01X2966Y12189D01*
G01X3020Y12136D01*
G01X3070Y11981D01*
G01X3070Y11513D02*
G01X3070Y11981D01*
G01X3124Y12136D01*
G01X3175Y12189D01*
G01X3279Y12240D01*
G01X3434Y12240D01*
G01X3538Y12189D01*
G01X3591Y12136D01*
G01X3642Y11981D01*
G01X3642Y11513D01*
G01X3428Y25488D02*
G01X3428Y24711D01*
G01X3479Y24554D01*
G01X3583Y24450D01*
G01X3741Y24399D01*
G01X3845Y24399D01*
G01X4000Y24450D01*
G01X4104Y24554D01*
G01X4155Y24711D01*
G01X4155Y25488D01*
G01X4551Y25229D02*
G01X4551Y25283D01*
G01X4602Y25387D01*
G01X4655Y25438D01*
G01X4759Y25488D01*
G01X4965Y25488D01*
G01X5069Y25438D01*
G01X5123Y25387D01*
G01X5173Y25283D01*
G01X5173Y25179D01*
G01X5123Y25074D01*
G01X5019Y24917D01*
G01X4498Y24399D01*
G01X5227Y24399D01*
G01X3822Y39712D02*
G01X3822Y38882D01*
G01X3769Y38727D01*
G01X3718Y38674D01*
G01X3614Y38623D01*
G01X3510Y38623D01*
G01X3406Y38674D01*
G01X3352Y38727D01*
G01X3302Y38882D01*
G01X3302Y38986D01*
G01X4165Y39507D02*
G01X4267Y39557D01*
G01X4424Y39712D01*
G01X4424Y38623D01*
G01X20222Y21189D02*
G01X20222Y21966D01*
G01X20171Y22124D01*
G01X20067Y22228D01*
G01X19909Y22279D01*
G01X19805Y22279D01*
G01X19650Y22228D01*
G01X19546Y22124D01*
G01X19495Y21966D01*
G01X19495Y21189D01*
G01X19152Y21395D02*
G01X19048Y21344D01*
G01X18891Y21189D01*
G01X18891Y22279D01*
G01X18548Y22642D02*
G01X17613Y22642D01*
G01X17270Y21189D02*
G01X17270Y22279D01*
G01X17270Y21189D02*
G01X16803Y21189D01*
G01X16648Y21240D01*
G01X16594Y21291D01*
G01X16544Y21395D01*
G01X16544Y21499D01*
G01X16594Y21603D01*
G01X16648Y21656D01*
G01X16803Y21707D01*
G01X17270Y21707D01*
G01X16907Y21707D02*
G01X16544Y22279D01*
G01X16201Y21189D02*
G01X16201Y22279D01*
G01X16201Y21189D02*
G01X15525Y21189D01*
G01X16201Y21707D02*
G01X15784Y21707D01*
G01X16201Y22279D02*
G01X15525Y22279D01*
G01X14402Y21448D02*
G01X14456Y21344D01*
G01X14557Y21240D01*
G01X14662Y21189D01*
G01X14870Y21189D01*
G01X14974Y21240D01*
G01X15078Y21344D01*
G01X15129Y21448D01*
G01X15182Y21603D01*
G01X15182Y21862D01*
G01X15129Y22020D01*
G01X15078Y22124D01*
G01X14974Y22228D01*
G01X14870Y22279D01*
G01X14662Y22279D01*
G01X14557Y22228D01*
G01X14456Y22124D01*
G01X14402Y22020D01*
G01X14402Y21862D01*
G01X14662Y21862D02*
G01X14402Y21862D01*
G01X9784Y21287D02*
G01X9679Y21234D01*
G01X9575Y21130D01*
G01X9525Y21028D01*
G01X9525Y20820D01*
G01X9575Y20716D01*
G01X9679Y20612D01*
G01X9784Y20558D01*
G01X9939Y20508D01*
G01X10198Y20508D01*
G01X10355Y20558D01*
G01X10459Y20612D01*
G01X10563Y20716D01*
G01X10614Y20820D01*
G01X10614Y21028D01*
G01X10563Y21130D01*
G01X10459Y21234D01*
G01X10355Y21287D01*
G01X9730Y21630D02*
G01X9679Y21734D01*
G01X9525Y21889D01*
G01X10614Y21889D01*
G01X10977Y22232D02*
G01X10977Y23167D01*
G01X9525Y23510D02*
G01X10614Y23510D01*
G01X9525Y23510D02*
G01X9525Y23977D01*
G01X9575Y24135D01*
G01X9626Y24185D01*
G01X9730Y24239D01*
G01X9834Y24239D01*
G01X9939Y24185D01*
G01X9992Y24135D01*
G01X10043Y23977D01*
G01X10043Y23510D01*
G01X10043Y23873D02*
G01X10614Y24239D01*
G01X9525Y24582D02*
G01X10614Y24582D01*
G01X9525Y24582D02*
G01X9525Y25257D01*
G01X10043Y24582D02*
G01X10043Y24996D01*
G01X10614Y24582D02*
G01X10614Y25257D01*
G01X9784Y26377D02*
G01X9679Y26327D01*
G01X9575Y26223D01*
G01X9525Y26118D01*
G01X9525Y25910D01*
G01X9575Y25806D01*
G01X9679Y25702D01*
G01X9784Y25651D01*
G01X9939Y25600D01*
G01X10198Y25600D01*
G01X10355Y25651D01*
G01X10459Y25702D01*
G01X10563Y25806D01*
G01X10614Y25910D01*
G01X10614Y26118D01*
G01X10563Y26223D01*
G01X10459Y26327D01*
G01X10355Y26377D01*
G01X10198Y26377D01*
G01X10198Y26118D02*
G01X10198Y26377D01*
G01X24135Y20947D02*
G01X24030Y20894D01*
G01X23926Y20789D01*
G01X23875Y20688D01*
G01X23875Y20480D01*
G01X23926Y20375D01*
G01X24030Y20271D01*
G01X24135Y20218D01*
G01X24289Y20167D01*
G01X24549Y20167D01*
G01X24706Y20218D01*
G01X24810Y20271D01*
G01X24914Y20375D01*
G01X24965Y20480D01*
G01X24965Y20688D01*
G01X24914Y20789D01*
G01X24810Y20894D01*
G01X24706Y20947D01*
G01X24135Y21341D02*
G01X24081Y21341D01*
G01X23977Y21394D01*
G01X23926Y21445D01*
G01X23875Y21549D01*
G01X23875Y21757D01*
G01X23926Y21861D01*
G01X23977Y21912D01*
G01X24081Y21965D01*
G01X24185Y21965D01*
G01X24289Y21912D01*
G01X24447Y21808D01*
G01X24965Y21290D01*
G01X24965Y22016D01*
G01X25328Y22359D02*
G01X25328Y23294D01*
G01X23875Y23637D02*
G01X24965Y23637D01*
G01X23875Y23637D02*
G01X23875Y24104D01*
G01X23926Y24262D01*
G01X23977Y24312D01*
G01X24081Y24366D01*
G01X24185Y24366D01*
G01X24289Y24312D01*
G01X24343Y24262D01*
G01X24394Y24104D01*
G01X24394Y23637D01*
G01X24394Y24003D02*
G01X24965Y24366D01*
G01X23875Y24709D02*
G01X24965Y24709D01*
G01X23875Y24709D02*
G01X23875Y25384D01*
G01X24394Y24709D02*
G01X24394Y25123D01*
G01X24965Y24709D02*
G01X24965Y25384D01*
G01X24135Y26504D02*
G01X24030Y26454D01*
G01X23926Y26350D01*
G01X23875Y26245D01*
G01X23875Y26037D01*
G01X23926Y25933D01*
G01X24030Y25831D01*
G01X24135Y25778D01*
G01X24289Y25727D01*
G01X24549Y25727D01*
G01X24706Y25778D01*
G01X24810Y25831D01*
G01X24914Y25933D01*
G01X24965Y26037D01*
G01X24965Y26245D01*
G01X24914Y26350D01*
G01X24810Y26454D01*
G01X24706Y26504D01*
G01X24549Y26504D01*
G01X24549Y26245D02*
G01X24549Y26504D01*
G01X3556Y16494D02*
G01X3606Y16390D01*
G01X3710Y16286D01*
G01X3815Y16233D01*
G01X3970Y16182D01*
G01X4229Y16182D01*
G01X4386Y16233D01*
G01X4490Y16286D01*
G01X4594Y16390D01*
G01X4645Y16494D01*
G01X4645Y16703D01*
G01X4594Y16804D01*
G01X4490Y16908D01*
G01X4386Y16962D01*
G01X4229Y17012D01*
G01X3970Y17012D01*
G01X3815Y16962D01*
G01X3710Y16908D01*
G01X3606Y16804D01*
G01X3556Y16703D01*
G01X3556Y16494D01*
G01X4437Y16649D02*
G01X4749Y16962D01*
G01X3761Y17355D02*
G01X3710Y17460D01*
G01X3556Y17617D01*
G01X4645Y17617D01*
G01X5008Y17960D02*
G01X5008Y18895D01*
G01X3556Y19238D02*
G01X4645Y19652D01*
G01X3556Y20068D02*
G01X4645Y19652D01*
G01X3815Y21191D02*
G01X3710Y21137D01*
G01X3606Y21033D01*
G01X3556Y20932D01*
G01X3556Y20723D01*
G01X3606Y20619D01*
G01X3710Y20515D01*
G01X3815Y20462D01*
G01X3970Y20411D01*
G01X4229Y20411D01*
G01X4386Y20462D01*
G01X4490Y20515D01*
G01X4594Y20619D01*
G01X4645Y20723D01*
G01X4645Y20932D01*
G01X4594Y21033D01*
G01X4490Y21137D01*
G01X4386Y21191D01*
G01X3815Y22313D02*
G01X3710Y22260D01*
G01X3606Y22156D01*
G01X3556Y22052D01*
G01X3556Y21846D01*
G01X3606Y21742D01*
G01X3710Y21638D01*
G01X3815Y21584D01*
G01X3970Y21534D01*
G01X4229Y21534D01*
G01X4386Y21584D01*
G01X4490Y21638D01*
G01X4594Y21742D01*
G01X4645Y21846D01*
G01X4645Y22052D01*
G01X4594Y22156D01*
G01X4490Y22260D01*
G01X4386Y22313D01*
G01X8889Y27470D02*
G01X8940Y27365D01*
G01X9044Y27261D01*
G01X9149Y27208D01*
G01X9303Y27157D01*
G01X9563Y27157D01*
G01X9720Y27208D01*
G01X9824Y27261D01*
G01X9928Y27365D01*
G01X9979Y27470D01*
G01X9979Y27678D01*
G01X9928Y27780D01*
G01X9824Y27884D01*
G01X9720Y27937D01*
G01X9563Y27988D01*
G01X9303Y27988D01*
G01X9149Y27937D01*
G01X9044Y27884D01*
G01X8940Y27780D01*
G01X8889Y27678D01*
G01X8889Y27470D01*
G01X9771Y27625D02*
G01X10083Y27937D01*
G01X9095Y28331D02*
G01X9044Y28435D01*
G01X8889Y28592D01*
G01X9979Y28592D01*
G01X10342Y28935D02*
G01X10342Y29870D01*
G01X8889Y30213D02*
G01X9979Y30627D01*
G01X8889Y31043D02*
G01X9979Y30627D01*
G01X8889Y31386D02*
G01X9979Y31386D01*
G01X8889Y31386D02*
G01X8889Y31750D01*
G01X8940Y31907D01*
G01X9044Y32009D01*
G01X9149Y32062D01*
G01X9303Y32113D01*
G01X9563Y32113D01*
G01X9720Y32062D01*
G01X9824Y32009D01*
G01X9928Y31907D01*
G01X9979Y31750D01*
G01X9979Y31386D01*
G01X9149Y33235D02*
G01X9044Y33185D01*
G01X8940Y33080D01*
G01X8889Y32976D01*
G01X8889Y32768D01*
G01X8940Y32664D01*
G01X9044Y32560D01*
G01X9149Y32509D01*
G01X9303Y32456D01*
G01X9563Y32456D01*
G01X9720Y32509D01*
G01X9824Y32560D01*
G01X9928Y32664D01*
G01X9979Y32768D01*
G01X9979Y32976D01*
G01X9928Y33080D01*
G01X9824Y33185D01*
G01X9720Y33235D01*
G01X25526Y11264D02*
G01X25526Y10487D01*
G01X25577Y10330D01*
G01X25681Y10226D01*
G01X25839Y10175D01*
G01X25943Y10175D01*
G01X26098Y10226D01*
G01X26202Y10330D01*
G01X26253Y10487D01*
G01X26253Y11264D01*
G01X27117Y11264D02*
G01X26596Y10538D01*
G01X27376Y10538D01*
G01X27117Y11264D02*
G01X27117Y10175D01*
G01X32257Y19138D02*
G01X32984Y18049D01*
G01X32984Y19138D02*
G01X32257Y18049D01*
G01X33380Y18879D02*
G01X33380Y18933D01*
G01X33431Y19037D01*
G01X33484Y19088D01*
G01X33588Y19138D01*
G01X33794Y19138D01*
G01X33898Y19088D01*
G01X33952Y19037D01*
G01X34002Y18933D01*
G01X34002Y18829D01*
G01X33952Y18724D01*
G01X33847Y18567D01*
G01X33327Y18049D01*
G01X34056Y18049D01*
G01X7510Y17736D02*
G01X7457Y17841D01*
G01X7353Y17945D01*
G01X7251Y17995D01*
G01X7043Y17995D01*
G01X6939Y17945D01*
G01X6835Y17841D01*
G01X6781Y17736D01*
G01X6730Y17581D01*
G01X6730Y17322D01*
G01X6781Y17165D01*
G01X6835Y17061D01*
G01X6939Y16957D01*
G01X7043Y16906D01*
G01X7251Y16906D01*
G01X7353Y16957D01*
G01X7457Y17061D01*
G01X7510Y17165D01*
G01X7853Y16543D02*
G01X8788Y16543D01*
G01X9131Y17995D02*
G01X9131Y17218D01*
G01X9182Y17061D01*
G01X9286Y16957D01*
G01X9443Y16906D01*
G01X9547Y16906D01*
G01X9702Y16957D01*
G01X9806Y17061D01*
G01X9857Y17218D01*
G01X9857Y17995D01*
G01X10929Y17841D02*
G01X10825Y17945D01*
G01X10667Y17995D01*
G01X10462Y17995D01*
G01X10304Y17945D01*
G01X10200Y17841D01*
G01X10200Y17736D01*
G01X10253Y17632D01*
G01X10304Y17581D01*
G01X10408Y17528D01*
G01X10721Y17424D01*
G01X10825Y17373D01*
G01X10876Y17322D01*
G01X10929Y17218D01*
G01X10929Y17061D01*
G01X10825Y16957D01*
G01X10667Y16906D01*
G01X10462Y16906D01*
G01X10304Y16957D01*
G01X10200Y17061D01*
G01X11272Y17995D02*
G01X11272Y16906D01*
G01X11272Y17995D02*
G01X11739Y17995D01*
G01X11894Y17945D01*
G01X11948Y17894D01*
G01X11998Y17790D01*
G01X11998Y17686D01*
G01X11948Y17581D01*
G01X11894Y17528D01*
G01X11739Y17477D01*
G01X11272Y17477D02*
G01X11739Y17477D01*
G01X11894Y17424D01*
G01X11948Y17373D01*
G01X11998Y17269D01*
G01X11998Y17114D01*
G01X11948Y17010D01*
G01X11894Y16957D01*
G01X11739Y16906D01*
G01X11272Y16906D01*
G01X85851Y17488D02*
G01X85851Y16398D01*
G01X85851Y17488D02*
G01X86215Y17488D01*
G01X86372Y17437D01*
G01X86474Y17333D01*
G01X86527Y17228D01*
G01X86578Y17073D01*
G01X86578Y16814D01*
G01X86527Y16657D01*
G01X86474Y16553D01*
G01X86372Y16449D01*
G01X86215Y16398D01*
G01X85851Y16398D01*
G01X86921Y17488D02*
G01X86921Y16398D01*
G01X86921Y17488D02*
G01X87388Y17488D01*
G01X87545Y17437D01*
G01X87596Y17386D01*
G01X87650Y17282D01*
G01X87650Y17178D01*
G01X87596Y17073D01*
G01X87545Y17020D01*
G01X87388Y16969D01*
G01X86921Y16969D01*
G01X87286Y16969D02*
G01X87650Y16398D01*
G01X87993Y17488D02*
G01X87993Y16398D01*
G01X88335Y17488D02*
G01X88749Y16398D01*
G01X89166Y17488D02*
G01X88749Y16398D01*
G01X89509Y17488D02*
G01X89509Y16398D01*
G01X89509Y17488D02*
G01X90185Y17488D01*
G01X89509Y16969D02*
G01X89925Y16969D01*
G01X89509Y16398D02*
G01X90185Y16398D01*
G01X90527Y17488D02*
G01X90527Y16398D01*
G01X90527Y17488D02*
G01X90995Y17488D01*
G01X91150Y17437D01*
G01X91203Y17386D01*
G01X91254Y17282D01*
G01X91254Y17178D01*
G01X91203Y17073D01*
G01X91150Y17020D01*
G01X90995Y16969D01*
G01X90527Y16969D01*
G01X90891Y16969D02*
G01X91254Y16398D01*
G01X91597Y17282D02*
G01X91701Y17333D01*
G01X91858Y17488D01*
G01X91858Y16398D01*
G01X85851Y3899D02*
G01X85851Y2809D01*
G01X85851Y2809D02*
G01X86476Y2809D01*
G01X86819Y3899D02*
G01X86819Y2809D01*
G01X86819Y3899D02*
G01X87495Y3899D01*
G01X86819Y3380D02*
G01X87236Y3380D01*
G01X86819Y2809D02*
G01X87495Y2809D01*
G01X87838Y3899D02*
G01X87838Y2809D01*
G01X87838Y3899D02*
G01X88201Y3899D01*
G01X88356Y3848D01*
G01X88460Y3744D01*
G01X88513Y3639D01*
G01X88564Y3485D01*
G01X88564Y3223D01*
G01X88513Y3068D01*
G01X88460Y2964D01*
G01X88356Y2860D01*
G01X88201Y2809D01*
G01X87838Y2809D01*
G01X88907Y3276D02*
G01X89842Y3276D01*
G01X90185Y3899D02*
G01X90185Y2809D01*
G01X90185Y3899D02*
G01X90550Y3899D01*
G01X90705Y3848D01*
G01X90809Y3744D01*
G01X90860Y3639D01*
G01X90914Y3485D01*
G01X90914Y3223D01*
G01X90860Y3068D01*
G01X90809Y2964D01*
G01X90705Y2860D01*
G01X90550Y2809D01*
G01X90185Y2809D01*
G01X91256Y3693D02*
G01X91361Y3744D01*
G01X91516Y3899D01*
G01X91516Y2809D01*
G01X73659Y17487D02*
G01X73659Y16398D01*
G01X73659Y17487D02*
G01X74023Y17487D01*
G01X74180Y17437D01*
G01X74282Y17333D01*
G01X74335Y17228D01*
G01X74386Y17073D01*
G01X74386Y16814D01*
G01X74335Y16657D01*
G01X74282Y16553D01*
G01X74180Y16449D01*
G01X74023Y16398D01*
G01X73659Y16398D01*
G01X74729Y17487D02*
G01X74729Y16398D01*
G01X74729Y17487D02*
G01X75196Y17487D01*
G01X75354Y17437D01*
G01X75404Y17386D01*
G01X75458Y17282D01*
G01X75458Y17178D01*
G01X75404Y17073D01*
G01X75354Y17020D01*
G01X75196Y16969D01*
G01X74729Y16969D01*
G01X75094Y16969D02*
G01X75458Y16398D01*
G01X75801Y17487D02*
G01X75801Y16398D01*
G01X76144Y17487D02*
G01X76558Y16398D01*
G01X76974Y17487D02*
G01X76558Y16398D01*
G01X77317Y17487D02*
G01X77317Y16398D01*
G01X77317Y17487D02*
G01X77993Y17487D01*
G01X77317Y16969D02*
G01X77734Y16969D01*
G01X77317Y16398D02*
G01X77993Y16398D01*
G01X78336Y17487D02*
G01X78336Y16398D01*
G01X78336Y17487D02*
G01X78803Y17487D01*
G01X78958Y17437D01*
G01X79011Y17386D01*
G01X79062Y17282D01*
G01X79062Y17178D01*
G01X79011Y17073D01*
G01X78958Y17020D01*
G01X78803Y16969D01*
G01X78336Y16969D01*
G01X78699Y16969D02*
G01X79062Y16398D01*
G01X79458Y17228D02*
G01X79458Y17282D01*
G01X79509Y17386D01*
G01X79562Y17437D01*
G01X79666Y17487D01*
G01X79872Y17487D01*
G01X79976Y17437D01*
G01X80030Y17386D01*
G01X80081Y17282D01*
G01X80081Y17178D01*
G01X80030Y17073D01*
G01X79926Y16916D01*
G01X79405Y16398D01*
G01X80134Y16398D01*
G01X73913Y3898D02*
G01X73913Y2809D01*
G01X73913Y2809D02*
G01X74536Y2809D01*
G01X74879Y3898D02*
G01X74879Y2809D01*
G01X74879Y3898D02*
G01X75554Y3898D01*
G01X74879Y3380D02*
G01X75295Y3380D01*
G01X74879Y2809D02*
G01X75554Y2809D01*
G01X75897Y3898D02*
G01X75897Y2809D01*
G01X75897Y3898D02*
G01X76263Y3898D01*
G01X76418Y3848D01*
G01X76522Y3744D01*
G01X76573Y3639D01*
G01X76626Y3484D01*
G01X76626Y3225D01*
G01X76573Y3068D01*
G01X76522Y2964D01*
G01X76418Y2860D01*
G01X76263Y2809D01*
G01X75897Y2809D01*
G01X76969Y3276D02*
G01X77904Y3276D01*
G01X78247Y3898D02*
G01X78247Y2809D01*
G01X78247Y3898D02*
G01X78610Y3898D01*
G01X78765Y3848D01*
G01X78869Y3744D01*
G01X78922Y3639D01*
G01X78973Y3484D01*
G01X78973Y3225D01*
G01X78922Y3068D01*
G01X78869Y2964D01*
G01X78765Y2860D01*
G01X78610Y2809D01*
G01X78247Y2809D01*
G01X79369Y3639D02*
G01X79369Y3693D01*
G01X79420Y3797D01*
G01X79473Y3848D01*
G01X79578Y3898D01*
G01X79783Y3898D01*
G01X79887Y3848D01*
G01X79941Y3797D01*
G01X79992Y3693D01*
G01X79992Y3589D01*
G01X79941Y3484D01*
G01X79837Y3327D01*
G01X79316Y2809D01*
G01X80045Y2809D01*
G01X39118Y39076D02*
G01X39118Y37986D01*
G01X39118Y39076D02*
G01X39481Y39076D01*
G01X39638Y39025D01*
G01X39740Y38921D01*
G01X39793Y38817D01*
G01X39844Y38662D01*
G01X39844Y38403D01*
G01X39793Y38245D01*
G01X39740Y38141D01*
G01X39638Y38037D01*
G01X39481Y37986D01*
G01X39118Y37986D01*
G01X40187Y39076D02*
G01X40187Y37986D01*
G01X40187Y39076D02*
G01X40654Y39076D01*
G01X40812Y39025D01*
G01X40862Y38974D01*
G01X40916Y38870D01*
G01X40916Y38766D01*
G01X40862Y38662D01*
G01X40812Y38609D01*
G01X40654Y38558D01*
G01X40187Y38558D01*
G01X40553Y38558D02*
G01X40916Y37986D01*
G01X41259Y39076D02*
G01X41259Y37986D01*
G01X41602Y39076D02*
G01X42016Y37986D01*
G01X42432Y39076D02*
G01X42016Y37986D01*
G01X42775Y39076D02*
G01X42775Y37986D01*
G01X42775Y39076D02*
G01X43451Y39076D01*
G01X42775Y38558D02*
G01X43192Y38558D01*
G01X42775Y37986D02*
G01X43451Y37986D01*
G01X43794Y39076D02*
G01X43794Y37986D01*
G01X43794Y39076D02*
G01X44261Y39076D01*
G01X44416Y39025D01*
G01X44469Y38974D01*
G01X44520Y38870D01*
G01X44520Y38766D01*
G01X44469Y38662D01*
G01X44416Y38609D01*
G01X44261Y38558D01*
G01X43794Y38558D01*
G01X44157Y38558D02*
G01X44520Y37986D01*
G01X44967Y39076D02*
G01X45539Y39076D01*
G01X45226Y38662D01*
G01X45384Y38662D01*
G01X45488Y38609D01*
G01X45539Y38558D01*
G01X45592Y38403D01*
G01X45592Y38299D01*
G01X45539Y38141D01*
G01X45434Y38037D01*
G01X45280Y37986D01*
G01X45125Y37986D01*
G01X44967Y38037D01*
G01X44916Y38090D01*
G01X44863Y38194D01*
G01X39242Y29298D02*
G01X39242Y28209D01*
G01X39242Y28209D02*
G01X39865Y28209D01*
G01X40208Y29298D02*
G01X40208Y28209D01*
G01X40208Y29298D02*
G01X40883Y29298D01*
G01X40208Y28780D02*
G01X40624Y28780D01*
G01X40208Y28209D02*
G01X40883Y28209D01*
G01X41226Y29298D02*
G01X41226Y28209D01*
G01X41226Y29298D02*
G01X41592Y29298D01*
G01X41747Y29248D01*
G01X41851Y29144D01*
G01X41902Y29039D01*
G01X41955Y28884D01*
G01X41955Y28625D01*
G01X41902Y28468D01*
G01X41851Y28364D01*
G01X41747Y28260D01*
G01X41592Y28209D01*
G01X41226Y28209D01*
G01X42298Y28676D02*
G01X43233Y28676D01*
G01X43576Y29298D02*
G01X43576Y28209D01*
G01X43576Y29298D02*
G01X43939Y29298D01*
G01X44094Y29248D01*
G01X44198Y29144D01*
G01X44251Y29039D01*
G01X44302Y28884D01*
G01X44302Y28625D01*
G01X44251Y28468D01*
G01X44198Y28364D01*
G01X44094Y28260D01*
G01X43939Y28209D01*
G01X43576Y28209D01*
G01X44749Y29298D02*
G01X45321Y29298D01*
G01X45008Y28884D01*
G01X45166Y28884D01*
G01X45270Y28831D01*
G01X45321Y28780D01*
G01X45374Y28625D01*
G01X45374Y28521D01*
G01X45321Y28364D01*
G01X45216Y28260D01*
G01X45062Y28209D01*
G01X44907Y28209D01*
G01X44749Y28260D01*
G01X44698Y28313D01*
G01X44645Y28417D01*
G01X50037Y39077D02*
G01X50037Y37988D01*
G01X50037Y39077D02*
G01X50401Y39077D01*
G01X50558Y39027D01*
G01X50660Y38922D01*
G01X50713Y38818D01*
G01X50764Y38663D01*
G01X50764Y38404D01*
G01X50713Y38247D01*
G01X50660Y38143D01*
G01X50558Y38039D01*
G01X50401Y37988D01*
G01X50037Y37988D01*
G01X51107Y39077D02*
G01X51107Y37988D01*
G01X51107Y39077D02*
G01X51574Y39077D01*
G01X51732Y39027D01*
G01X51782Y38976D01*
G01X51836Y38872D01*
G01X51836Y38768D01*
G01X51782Y38663D01*
G01X51732Y38610D01*
G01X51574Y38559D01*
G01X51107Y38559D01*
G01X51473Y38559D02*
G01X51836Y37988D01*
G01X52179Y39077D02*
G01X52179Y37988D01*
G01X52522Y39077D02*
G01X52936Y37988D01*
G01X53352Y39077D02*
G01X52936Y37988D01*
G01X53695Y39077D02*
G01X53695Y37988D01*
G01X53695Y39077D02*
G01X54371Y39077D01*
G01X53695Y38559D02*
G01X54112Y38559D01*
G01X53695Y37988D02*
G01X54371Y37988D01*
G01X54714Y39077D02*
G01X54714Y37988D01*
G01X54714Y39077D02*
G01X55181Y39077D01*
G01X55336Y39027D01*
G01X55389Y38976D01*
G01X55440Y38872D01*
G01X55440Y38768D01*
G01X55389Y38663D01*
G01X55336Y38610D01*
G01X55181Y38559D01*
G01X54714Y38559D01*
G01X55077Y38559D02*
G01X55440Y37988D01*
G01X56304Y39077D02*
G01X55783Y38351D01*
G01X56563Y38351D01*
G01X56304Y39077D02*
G01X56304Y37988D01*
G01X50037Y29298D02*
G01X50037Y28209D01*
G01X50037Y28209D02*
G01X50660Y28209D01*
G01X51003Y29298D02*
G01X51003Y28209D01*
G01X51003Y29298D02*
G01X51678Y29298D01*
G01X51003Y28780D02*
G01X51419Y28780D01*
G01X51003Y28209D02*
G01X51678Y28209D01*
G01X52021Y29298D02*
G01X52021Y28209D01*
G01X52021Y29298D02*
G01X52387Y29298D01*
G01X52542Y29248D01*
G01X52646Y29144D01*
G01X52697Y29039D01*
G01X52750Y28884D01*
G01X52750Y28625D01*
G01X52697Y28468D01*
G01X52646Y28364D01*
G01X52542Y28260D01*
G01X52387Y28209D01*
G01X52021Y28209D01*
G01X53093Y28676D02*
G01X54028Y28676D01*
G01X54371Y29298D02*
G01X54371Y28209D01*
G01X54371Y29298D02*
G01X54734Y29298D01*
G01X54889Y29248D01*
G01X54993Y29144D01*
G01X55046Y29039D01*
G01X55097Y28884D01*
G01X55097Y28625D01*
G01X55046Y28468D01*
G01X54993Y28364D01*
G01X54889Y28260D01*
G01X54734Y28209D01*
G01X54371Y28209D01*
G01X55961Y29298D02*
G01X55440Y28572D01*
G01X56220Y28572D01*
G01X55961Y29298D02*
G01X55961Y28209D01*
G01X18397Y44792D02*
G01X18397Y43703D01*
G01X18033Y44792D02*
G01X18760Y44792D01*
G01X19103Y44792D02*
G01X19103Y43703D01*
G01X19103Y44792D02*
G01X19778Y44792D01*
G01X19103Y44274D02*
G01X19519Y44274D01*
G01X19103Y43703D02*
G01X19778Y43703D01*
G01X20121Y44792D02*
G01X20121Y43703D01*
G01X20121Y44792D02*
G01X20538Y43703D01*
G01X20954Y44792D02*
G01X20538Y43703D01*
G01X20954Y44792D02*
G01X20954Y43703D01*
G01X21297Y44792D02*
G01X21297Y43703D01*
G01X21297Y44792D02*
G01X21765Y44792D01*
G01X21920Y44742D01*
G01X21970Y44691D01*
G01X22024Y44587D01*
G01X22024Y44429D01*
G01X21970Y44325D01*
G01X21920Y44274D01*
G01X21765Y44221D01*
G01X21297Y44221D01*
G01X22367Y44587D02*
G01X22471Y44637D01*
G01X22626Y44792D01*
G01X22626Y43703D01*
G01X29446Y44792D02*
G01X29446Y43703D01*
G01X29082Y44792D02*
G01X29809Y44792D01*
G01X30152Y44792D02*
G01X30152Y43703D01*
G01X30152Y44792D02*
G01X30827Y44792D01*
G01X30152Y44274D02*
G01X30568Y44274D01*
G01X30152Y43703D02*
G01X30827Y43703D01*
G01X31170Y44792D02*
G01X31170Y43703D01*
G01X31170Y44792D02*
G01X31587Y43703D01*
G01X32003Y44792D02*
G01X31587Y43703D01*
G01X32003Y44792D02*
G01X32003Y43703D01*
G01X32346Y44792D02*
G01X32346Y43703D01*
G01X32346Y44792D02*
G01X32814Y44792D01*
G01X32969Y44742D01*
G01X33019Y44691D01*
G01X33073Y44587D01*
G01X33073Y44429D01*
G01X33019Y44325D01*
G01X32969Y44274D01*
G01X32814Y44221D01*
G01X32346Y44221D01*
G01X33466Y44533D02*
G01X33466Y44587D01*
G01X33520Y44691D01*
G01X33571Y44742D01*
G01X33675Y44792D01*
G01X33883Y44792D01*
G01X33987Y44742D01*
G01X34038Y44691D01*
G01X34091Y44587D01*
G01X34091Y44483D01*
G01X34038Y44378D01*
G01X33934Y44221D01*
G01X33416Y43703D01*
G01X34142Y43703D01*
G01X40368Y44792D02*
G01X40368Y43703D01*
G01X40004Y44792D02*
G01X40731Y44792D01*
G01X41074Y44792D02*
G01X41074Y43703D01*
G01X41074Y44792D02*
G01X41749Y44792D01*
G01X41074Y44274D02*
G01X41490Y44274D01*
G01X41074Y43703D02*
G01X41749Y43703D01*
G01X42092Y44792D02*
G01X42092Y43703D01*
G01X42092Y44792D02*
G01X42509Y43703D01*
G01X42925Y44792D02*
G01X42509Y43703D01*
G01X42925Y44792D02*
G01X42925Y43703D01*
G01X43268Y44792D02*
G01X43268Y43703D01*
G01X43268Y44792D02*
G01X43736Y44792D01*
G01X43891Y44742D01*
G01X43941Y44691D01*
G01X43995Y44587D01*
G01X43995Y44429D01*
G01X43941Y44325D01*
G01X43891Y44274D01*
G01X43736Y44221D01*
G01X43268Y44221D01*
G01X44442Y44792D02*
G01X45013Y44792D01*
G01X44701Y44378D01*
G01X44856Y44378D01*
G01X44960Y44325D01*
G01X45013Y44274D01*
G01X45064Y44119D01*
G01X45064Y44015D01*
G01X45013Y43858D01*
G01X44909Y43754D01*
G01X44754Y43703D01*
G01X44597Y43703D01*
G01X44442Y43754D01*
G01X44388Y43807D01*
G01X44338Y43911D01*
G01X51163Y44792D02*
G01X51163Y43703D01*
G01X50799Y44792D02*
G01X51526Y44792D01*
G01X51869Y44792D02*
G01X51869Y43703D01*
G01X51869Y44792D02*
G01X52544Y44792D01*
G01X51869Y44274D02*
G01X52285Y44274D01*
G01X51869Y43703D02*
G01X52544Y43703D01*
G01X52887Y44792D02*
G01X52887Y43703D01*
G01X52887Y44792D02*
G01X53304Y43703D01*
G01X53720Y44792D02*
G01X53304Y43703D01*
G01X53720Y44792D02*
G01X53720Y43703D01*
G01X54063Y44792D02*
G01X54063Y43703D01*
G01X54063Y44792D02*
G01X54531Y44792D01*
G01X54686Y44742D01*
G01X54736Y44691D01*
G01X54790Y44587D01*
G01X54790Y44429D01*
G01X54736Y44325D01*
G01X54686Y44274D01*
G01X54531Y44221D01*
G01X54063Y44221D01*
G01X55651Y44792D02*
G01X55133Y44066D01*
G01X55912Y44066D01*
G01X55651Y44792D02*
G01X55651Y43703D01*
G01X90550Y26682D02*
G01X91640Y26682D01*
G01X90550Y26682D02*
G01X90550Y27150D01*
G01X90601Y27305D01*
G01X90652Y27358D01*
G01X90756Y27409D01*
G01X90860Y27409D01*
G01X90964Y27358D01*
G01X91018Y27305D01*
G01X91068Y27150D01*
G01X91068Y26682D01*
G01X91068Y27045D02*
G01X91640Y27409D01*
G01X90550Y27752D02*
G01X91640Y27752D01*
G01X90550Y27752D02*
G01X90550Y28427D01*
G01X91068Y27752D02*
G01X91068Y28168D01*
G01X91640Y27752D02*
G01X91640Y28427D01*
G01X90550Y28770D02*
G01X91640Y28770D01*
G01X91640Y28770D02*
G01X91640Y29395D01*
G01X90550Y30152D02*
G01X91640Y29738D01*
G01X90550Y30152D02*
G01X91640Y30568D01*
G01X91277Y29893D02*
G01X91277Y30413D01*
G01X90550Y30911D02*
G01X91068Y31328D01*
G01X91640Y31328D01*
G01X90550Y31742D02*
G01X91068Y31328D01*
G01X90756Y32085D02*
G01X90705Y32189D01*
G01X90550Y32346D01*
G01X91640Y32346D01*
G01X60832Y26342D02*
G01X61922Y26342D01*
G01X60832Y26342D02*
G01X60832Y26809D01*
G01X60883Y26964D01*
G01X60934Y27018D01*
G01X61038Y27068D01*
G01X61142Y27068D01*
G01X61246Y27018D01*
G01X61300Y26964D01*
G01X61351Y26809D01*
G01X61351Y26342D01*
G01X61351Y26705D02*
G01X61922Y27068D01*
G01X60832Y27411D02*
G01X61922Y27411D01*
G01X60832Y27411D02*
G01X60832Y28087D01*
G01X61351Y27411D02*
G01X61351Y27828D01*
G01X61922Y27411D02*
G01X61922Y28087D01*
G01X60832Y28430D02*
G01X61922Y28430D01*
G01X61922Y28430D02*
G01X61922Y29055D01*
G01X60832Y29812D02*
G01X61922Y29397D01*
G01X60832Y29812D02*
G01X61922Y30228D01*
G01X61559Y29552D02*
G01X61559Y30073D01*
G01X60832Y30571D02*
G01X61351Y30988D01*
G01X61922Y30988D01*
G01X60832Y31402D02*
G01X61351Y30988D01*
G01X61091Y31798D02*
G01X61038Y31798D01*
G01X60934Y31849D01*
G01X60883Y31902D01*
G01X60832Y32006D01*
G01X60832Y32212D01*
G01X60883Y32316D01*
G01X60934Y32369D01*
G01X61038Y32420D01*
G01X61142Y32420D01*
G01X61246Y32369D01*
G01X61404Y32265D01*
G01X61922Y31744D01*
G01X61922Y32473D01*
G01X93852Y41300D02*
G01X94942Y41300D01*
G01X93852Y41300D02*
G01X93852Y41767D01*
G01X93903Y41922D01*
G01X93954Y41976D01*
G01X94058Y42026D01*
G01X94162Y42026D01*
G01X94266Y41976D01*
G01X94320Y41922D01*
G01X94370Y41767D01*
G01X94370Y41300D01*
G01X94370Y41663D02*
G01X94942Y42026D01*
G01X93852Y42369D02*
G01X94942Y42369D01*
G01X94942Y42369D02*
G01X94942Y42994D01*
G01X93852Y43337D02*
G01X94370Y43751D01*
G01X94942Y43751D01*
G01X93852Y44168D02*
G01X94370Y43751D01*
G01X94058Y44510D02*
G01X94007Y44615D01*
G01X93852Y44770D01*
G01X94942Y44770D01*
G01X95305Y45112D02*
G01X95305Y46050D01*
G01X93852Y46702D02*
G01X93903Y46598D01*
G01X94007Y46494D01*
G01X94111Y46443D01*
G01X94266Y46393D01*
G01X94525Y46393D01*
G01X94683Y46443D01*
G01X94787Y46494D01*
G01X94891Y46598D01*
G01X94942Y46702D01*
G01X94942Y46911D01*
G01X94891Y47015D01*
G01X94787Y47119D01*
G01X94683Y47170D01*
G01X94525Y47223D01*
G01X94266Y47223D01*
G01X94111Y47170D01*
G01X94007Y47119D01*
G01X93903Y47015D01*
G01X93852Y46911D01*
G01X93852Y46702D01*
G01X93852Y47566D02*
G01X94630Y47566D01*
G01X94787Y47617D01*
G01X94891Y47721D01*
G01X94942Y47878D01*
G01X94942Y47980D01*
G01X94891Y48138D01*
G01X94787Y48242D01*
G01X94630Y48292D01*
G01X93852Y48292D01*
G01X93852Y48999D02*
G01X94942Y48999D01*
G01X93852Y48635D02*
G01X93852Y49364D01*
G01X57924Y40868D02*
G01X59014Y40868D01*
G01X57924Y40868D02*
G01X57924Y41335D01*
G01X57975Y41490D01*
G01X58026Y41544D01*
G01X58130Y41595D01*
G01X58234Y41595D01*
G01X58338Y41544D01*
G01X58392Y41490D01*
G01X58442Y41335D01*
G01X58442Y40868D01*
G01X58442Y41231D02*
G01X59014Y41595D01*
G01X57924Y41937D02*
G01X59014Y41937D01*
G01X59014Y41937D02*
G01X59014Y42562D01*
G01X57924Y42905D02*
G01X58442Y43319D01*
G01X59014Y43319D01*
G01X57924Y43736D02*
G01X58442Y43319D01*
G01X58183Y44132D02*
G01X58130Y44132D01*
G01X58026Y44183D01*
G01X57975Y44234D01*
G01X57924Y44338D01*
G01X57924Y44546D01*
G01X57975Y44650D01*
G01X58026Y44704D01*
G01X58130Y44754D01*
G01X58234Y44754D01*
G01X58338Y44704D01*
G01X58496Y44599D01*
G01X59014Y44079D01*
G01X59014Y44805D01*
G01X59377Y45148D02*
G01X59377Y46085D01*
G01X57924Y46738D02*
G01X57975Y46634D01*
G01X58079Y46532D01*
G01X58183Y46479D01*
G01X58338Y46428D01*
G01X58597Y46428D01*
G01X58755Y46479D01*
G01X58859Y46532D01*
G01X58963Y46634D01*
G01X59014Y46738D01*
G01X59014Y46946D01*
G01X58963Y47050D01*
G01X58859Y47155D01*
G01X58755Y47205D01*
G01X58597Y47259D01*
G01X58338Y47259D01*
G01X58183Y47205D01*
G01X58079Y47155D01*
G01X57975Y47050D01*
G01X57924Y46946D01*
G01X57924Y46738D01*
G01X57924Y47602D02*
G01X58701Y47602D01*
G01X58859Y47652D01*
G01X58963Y47757D01*
G01X59014Y47914D01*
G01X59014Y48018D01*
G01X58963Y48173D01*
G01X58859Y48277D01*
G01X58701Y48328D01*
G01X57924Y48328D01*
G01X57924Y49034D02*
G01X59014Y49034D01*
G01X57924Y48671D02*
G01X57924Y49400D01*
G01X96394Y19838D02*
G01X97484Y19838D01*
G01X96394Y19838D02*
G01X96394Y20201D01*
G01X96445Y20359D01*
G01X96549Y20460D01*
G01X96653Y20514D01*
G01X96808Y20564D01*
G01X97067Y20564D01*
G01X97225Y20514D01*
G01X97329Y20460D01*
G01X97433Y20359D01*
G01X97484Y20201D01*
G01X97484Y19838D01*
G01X96600Y20907D02*
G01X96549Y21011D01*
G01X96394Y21169D01*
G01X97484Y21169D01*
G01X54988Y19501D02*
G01X56078Y19501D01*
G01X54988Y19501D02*
G01X54988Y19864D01*
G01X55039Y20021D01*
G01X55143Y20123D01*
G01X55247Y20176D01*
G01X55402Y20227D01*
G01X55661Y20227D01*
G01X55819Y20176D01*
G01X55923Y20123D01*
G01X56027Y20021D01*
G01X56078Y19864D01*
G01X56078Y19501D01*
G01X55247Y20623D02*
G01X55194Y20623D01*
G01X55090Y20674D01*
G01X55039Y20727D01*
G01X54988Y20832D01*
G01X54988Y21037D01*
G01X55039Y21141D01*
G01X55090Y21195D01*
G01X55194Y21246D01*
G01X55298Y21246D01*
G01X55402Y21195D01*
G01X55560Y21091D01*
G01X56078Y20570D01*
G01X56078Y21299D01*
G01X19303Y36918D02*
G01X19303Y35829D01*
G01X19959Y36918D02*
G01X19855Y36868D01*
G01X19750Y36763D01*
G01X19697Y36659D01*
G01X19646Y36504D01*
G01X19646Y36245D01*
G01X19697Y36088D01*
G01X19750Y35984D01*
G01X19855Y35880D01*
G01X19959Y35829D01*
G01X20167Y35829D01*
G01X20269Y35880D01*
G01X20373Y35984D01*
G01X20426Y36088D01*
G01X20477Y36245D01*
G01X20477Y36504D01*
G01X20426Y36659D01*
G01X20373Y36763D01*
G01X20269Y36868D01*
G01X20167Y36918D01*
G01X19959Y36918D01*
G01X20820Y36713D02*
G01X20924Y36763D01*
G01X21081Y36918D01*
G01X21081Y35829D01*
G01X30352Y36918D02*
G01X30352Y35829D01*
G01X31008Y36918D02*
G01X30904Y36868D01*
G01X30799Y36763D01*
G01X30746Y36659D01*
G01X30695Y36504D01*
G01X30695Y36245D01*
G01X30746Y36088D01*
G01X30799Y35984D01*
G01X30904Y35880D01*
G01X31008Y35829D01*
G01X31216Y35829D01*
G01X31318Y35880D01*
G01X31422Y35984D01*
G01X31475Y36088D01*
G01X31526Y36245D01*
G01X31526Y36504D01*
G01X31475Y36659D01*
G01X31422Y36763D01*
G01X31318Y36868D01*
G01X31216Y36918D01*
G01X31008Y36918D01*
G01X31922Y36659D02*
G01X31922Y36713D01*
G01X31973Y36817D01*
G01X32026Y36868D01*
G01X32130Y36918D01*
G01X32336Y36918D01*
G01X32440Y36868D01*
G01X32494Y36817D01*
G01X32544Y36713D01*
G01X32544Y36609D01*
G01X32494Y36504D01*
G01X32389Y36347D01*
G01X31869Y35829D01*
G01X32598Y35829D01*
G01X15112Y29344D02*
G01X15112Y28255D01*
G01X15768Y29344D02*
G01X15664Y29293D01*
G01X15560Y29189D01*
G01X15506Y29085D01*
G01X15455Y28930D01*
G01X15455Y28671D01*
G01X15506Y28514D01*
G01X15560Y28409D01*
G01X15664Y28305D01*
G01X15768Y28255D01*
G01X15976Y28255D01*
G01X16078Y28305D01*
G01X16182Y28409D01*
G01X16235Y28514D01*
G01X16286Y28671D01*
G01X16286Y28930D01*
G01X16235Y29085D01*
G01X16182Y29189D01*
G01X16078Y29293D01*
G01X15976Y29344D01*
G01X15768Y29344D01*
G01X16733Y29344D02*
G01X17304Y29344D01*
G01X16992Y28930D01*
G01X17150Y28930D01*
G01X17254Y28877D01*
G01X17304Y28826D01*
G01X17358Y28671D01*
G01X17358Y28567D01*
G01X17304Y28409D01*
G01X17200Y28305D01*
G01X17045Y28255D01*
G01X16890Y28255D01*
G01X16733Y28305D01*
G01X16682Y28359D01*
G01X16629Y28463D01*
G01X18064Y29552D02*
G01X17960Y29448D01*
G01X17856Y29293D01*
G01X17752Y29085D01*
G01X17701Y28826D01*
G01X17701Y28618D01*
G01X17752Y28359D01*
G01X17856Y28150D01*
G01X17960Y27995D01*
G01X18064Y27891D01*
G01X18821Y29344D02*
G01X18407Y28255D01*
G01X18821Y29344D02*
G01X19237Y28255D01*
G01X18562Y28618D02*
G01X19082Y28618D01*
G01X19580Y29344D02*
G01X19580Y28255D01*
G01X19580Y29344D02*
G01X20307Y28255D01*
G01X20307Y29344D02*
G01X20307Y28255D01*
G01X21066Y29344D02*
G01X20650Y28255D01*
G01X21066Y29344D02*
G01X21483Y28255D01*
G01X20807Y28618D02*
G01X21325Y28618D01*
G01X21826Y29344D02*
G01X21826Y28255D01*
G01X21826Y28255D02*
G01X22448Y28255D01*
G01X23103Y29344D02*
G01X22999Y29293D01*
G01X22895Y29189D01*
G01X22844Y29085D01*
G01X22791Y28930D01*
G01X22791Y28671D01*
G01X22844Y28514D01*
G01X22895Y28409D01*
G01X22999Y28305D01*
G01X23103Y28255D01*
G01X23312Y28255D01*
G01X23416Y28305D01*
G01X23520Y28409D01*
G01X23571Y28514D01*
G01X23621Y28671D01*
G01X23621Y28930D01*
G01X23571Y29085D01*
G01X23520Y29189D01*
G01X23416Y29293D01*
G01X23312Y29344D01*
G01X23103Y29344D01*
G01X24744Y29085D02*
G01X24693Y29189D01*
G01X24589Y29293D01*
G01X24485Y29344D01*
G01X24277Y29344D01*
G01X24173Y29293D01*
G01X24069Y29189D01*
G01X24018Y29085D01*
G01X23964Y28930D01*
G01X23964Y28671D01*
G01X24018Y28514D01*
G01X24069Y28409D01*
G01X24173Y28305D01*
G01X24277Y28255D01*
G01X24485Y28255D01*
G01X24589Y28305D01*
G01X24693Y28409D01*
G01X24744Y28514D01*
G01X24744Y28671D01*
G01X24485Y28671D02*
G01X24744Y28671D01*
G01X25087Y29552D02*
G01X25191Y29448D01*
G01X25295Y29293D01*
G01X25399Y29085D01*
G01X25450Y28826D01*
G01X25450Y28618D01*
G01X25399Y28359D01*
G01X25295Y28150D01*
G01X25191Y27995D01*
G01X25087Y27891D01*
G01X26288Y29344D02*
G01X26288Y28255D01*
G01X26944Y29344D02*
G01X26840Y29293D01*
G01X26735Y29189D01*
G01X26682Y29085D01*
G01X26631Y28930D01*
G01X26631Y28671D01*
G01X26682Y28514D01*
G01X26735Y28410D01*
G01X26840Y28305D01*
G01X26944Y28255D01*
G01X27152Y28255D01*
G01X27254Y28305D01*
G01X27358Y28410D01*
G01X27411Y28514D01*
G01X27462Y28671D01*
G01X27462Y28930D01*
G01X27411Y29085D01*
G01X27358Y29189D01*
G01X27254Y29293D01*
G01X27152Y29344D01*
G01X26944Y29344D01*
G01X28326Y29344D02*
G01X27805Y28618D01*
G01X28585Y28618D01*
G01X28326Y29344D02*
G01X28326Y28255D01*
G01X29291Y29553D02*
G01X29187Y29448D01*
G01X29082Y29293D01*
G01X28981Y29085D01*
G01X28927Y28826D01*
G01X28927Y28618D01*
G01X28981Y28359D01*
G01X29082Y28150D01*
G01X29187Y27995D01*
G01X29291Y27891D01*
G01X30050Y29344D02*
G01X29634Y28255D01*
G01X30050Y29344D02*
G01X30467Y28255D01*
G01X29791Y28618D02*
G01X30309Y28618D01*
G01X30810Y29344D02*
G01X30810Y28255D01*
G01X30810Y29344D02*
G01X31536Y28255D01*
G01X31536Y29344D02*
G01X31536Y28255D01*
G01X32296Y29344D02*
G01X31879Y28255D01*
G01X32296Y29344D02*
G01X32710Y28255D01*
G01X32034Y28618D02*
G01X32555Y28618D01*
G01X33052Y29344D02*
G01X33052Y28255D01*
G01X33052Y28255D02*
G01X33677Y28255D01*
G01X34330Y29344D02*
G01X34226Y29293D01*
G01X34124Y29189D01*
G01X34071Y29085D01*
G01X34020Y28930D01*
G01X34020Y28671D01*
G01X34071Y28514D01*
G01X34124Y28410D01*
G01X34226Y28305D01*
G01X34330Y28255D01*
G01X34538Y28255D01*
G01X34642Y28305D01*
G01X34747Y28410D01*
G01X34797Y28514D01*
G01X34851Y28671D01*
G01X34851Y28930D01*
G01X34797Y29085D01*
G01X34747Y29189D01*
G01X34642Y29293D01*
G01X34538Y29344D01*
G01X34330Y29344D01*
G01X35973Y29085D02*
G01X35920Y29189D01*
G01X35816Y29293D01*
G01X35712Y29344D01*
G01X35506Y29344D01*
G01X35402Y29293D01*
G01X35298Y29189D01*
G01X35244Y29085D01*
G01X35194Y28930D01*
G01X35194Y28671D01*
G01X35244Y28514D01*
G01X35298Y28410D01*
G01X35402Y28305D01*
G01X35506Y28255D01*
G01X35712Y28255D01*
G01X35816Y28305D01*
G01X35920Y28410D01*
G01X35973Y28514D01*
G01X35973Y28671D01*
G01X35712Y28671D02*
G01X35973Y28671D01*
G01X36316Y29553D02*
G01X36420Y29448D01*
G01X36525Y29293D01*
G01X36626Y29085D01*
G01X36680Y28826D01*
G01X36680Y28618D01*
G01X36626Y28359D01*
G01X36525Y28150D01*
G01X36420Y27995D01*
G01X36316Y27891D01*
G01X54161Y4170D02*
G01X54161Y3393D01*
G01X54211Y3235D01*
G01X54315Y3131D01*
G01X54473Y3080D01*
G01X54577Y3080D01*
G01X54732Y3131D01*
G01X54836Y3235D01*
G01X54887Y3393D01*
G01X54887Y4170D01*
G01X55230Y3964D02*
G01X55334Y4015D01*
G01X55491Y4170D01*
G01X55491Y3080D01*
G01X60457Y13076D02*
G01X60352Y13022D01*
G01X60248Y12918D01*
G01X60197Y12816D01*
G01X60197Y12608D01*
G01X60248Y12504D01*
G01X60352Y12400D01*
G01X60457Y12347D01*
G01X60611Y12296D01*
G01X60871Y12296D01*
G01X61028Y12347D01*
G01X61132Y12400D01*
G01X61236Y12504D01*
G01X61287Y12608D01*
G01X61287Y12816D01*
G01X61236Y12918D01*
G01X61132Y13022D01*
G01X61028Y13076D01*
G01X60403Y13418D02*
G01X60352Y13523D01*
G01X60197Y13678D01*
G01X61287Y13678D01*
G01X60329Y6385D02*
G01X60225Y6332D01*
G01X60121Y6228D01*
G01X60070Y6126D01*
G01X60070Y5918D01*
G01X60121Y5814D01*
G01X60225Y5710D01*
G01X60329Y5656D01*
G01X60484Y5605D01*
G01X60743Y5605D01*
G01X60901Y5656D01*
G01X61005Y5710D01*
G01X61109Y5814D01*
G01X61160Y5918D01*
G01X61160Y6126D01*
G01X61109Y6228D01*
G01X61005Y6332D01*
G01X60901Y6385D01*
G01X60329Y6779D02*
G01X60276Y6779D01*
G01X60172Y6832D01*
G01X60121Y6883D01*
G01X60070Y6987D01*
G01X60070Y7195D01*
G01X60121Y7300D01*
G01X60172Y7350D01*
G01X60276Y7404D01*
G01X60380Y7404D01*
G01X60484Y7350D01*
G01X60642Y7246D01*
G01X61160Y6728D01*
G01X61160Y7455D01*
G01X46867Y10576D02*
G01X46763Y10523D01*
G01X46659Y10419D01*
G01X46608Y10317D01*
G01X46608Y10109D01*
G01X46659Y10005D01*
G01X46763Y9900D01*
G01X46867Y9847D01*
G01X47022Y9796D01*
G01X47281Y9796D01*
G01X47439Y9847D01*
G01X47543Y9900D01*
G01X47647Y10005D01*
G01X47698Y10109D01*
G01X47698Y10317D01*
G01X47647Y10419D01*
G01X47543Y10523D01*
G01X47439Y10576D01*
G01X46608Y11023D02*
G01X46608Y11595D01*
G01X47022Y11282D01*
G01X47022Y11437D01*
G01X47076Y11541D01*
G01X47127Y11595D01*
G01X47281Y11645D01*
G01X47386Y11645D01*
G01X47543Y11595D01*
G01X47647Y11491D01*
G01X47698Y11333D01*
G01X47698Y11178D01*
G01X47647Y11023D01*
G01X47594Y10970D01*
G01X47490Y10919D01*
G01X25780Y42252D02*
G01X25780Y41163D01*
G01X25780Y42252D02*
G01X26248Y42252D01*
G01X26403Y42202D01*
G01X26456Y42151D01*
G01X26507Y42047D01*
G01X26507Y41943D01*
G01X26456Y41838D01*
G01X26403Y41785D01*
G01X26248Y41734D01*
G01X25780Y41734D01*
G01X26144Y41734D02*
G01X26507Y41163D01*
G01X27162Y42252D02*
G01X27058Y42202D01*
G01X26954Y42097D01*
G01X26903Y41993D01*
G01X26850Y41838D01*
G01X26850Y41579D01*
G01X26903Y41422D01*
G01X26954Y41318D01*
G01X27058Y41214D01*
G01X27162Y41163D01*
G01X27371Y41163D01*
G01X27475Y41214D01*
G01X27579Y41318D01*
G01X27630Y41422D01*
G01X27683Y41579D01*
G01X27683Y41838D01*
G01X27630Y41993D01*
G01X27579Y42097D01*
G01X27475Y42202D01*
G01X27371Y42252D01*
G01X27162Y42252D01*
G01X28026Y42252D02*
G01X28285Y41163D01*
G01X28544Y42252D02*
G01X28285Y41163D01*
G01X28544Y42252D02*
G01X28803Y41163D01*
G01X29065Y42252D02*
G01X28803Y41163D01*
G01X43929Y3149D02*
G01X43929Y2059D01*
G01X43929Y3149D02*
G01X44396Y3149D01*
G01X44551Y3098D01*
G01X44604Y3048D01*
G01X44655Y2943D01*
G01X44655Y2839D01*
G01X44604Y2735D01*
G01X44551Y2682D01*
G01X44396Y2631D01*
G01X43929Y2631D01*
G01X44292Y2631D02*
G01X44655Y2059D01*
G01X45051Y2890D02*
G01X45051Y2943D01*
G01X45102Y3048D01*
G01X45156Y3098D01*
G01X45260Y3149D01*
G01X45465Y3149D01*
G01X45570Y3098D01*
G01X45623Y3048D01*
G01X45674Y2943D01*
G01X45674Y2839D01*
G01X45623Y2735D01*
G01X45519Y2578D01*
G01X44998Y2059D01*
G01X45727Y2059D01*
G01X46070Y1696D02*
G01X47005Y1696D01*
G01X47348Y3149D02*
G01X47348Y2059D01*
G01X47348Y3149D02*
G01X47815Y3149D01*
G01X47970Y3098D01*
G01X48023Y3048D01*
G01X48074Y2943D01*
G01X48074Y2839D01*
G01X48023Y2735D01*
G01X47970Y2682D01*
G01X47815Y2631D01*
G01X47348Y2631D01*
G01X47711Y2631D02*
G01X48074Y2059D01*
G01X49146Y2994D02*
G01X49042Y3098D01*
G01X48884Y3149D01*
G01X48678Y3149D01*
G01X48521Y3098D01*
G01X48417Y2994D01*
G01X48417Y2890D01*
G01X48470Y2786D01*
G01X48521Y2735D01*
G01X48625Y2682D01*
G01X48938Y2578D01*
G01X49042Y2527D01*
G01X49093Y2476D01*
G01X49146Y2372D01*
G01X49146Y2214D01*
G01X49042Y2110D01*
G01X48884Y2059D01*
G01X48678Y2059D01*
G01X48521Y2110D01*
G01X48417Y2214D01*
G01X49852Y3149D02*
G01X49852Y2059D01*
G01X49489Y3149D02*
G01X50215Y3149D01*
G01X51285Y2994D02*
G01X51180Y3098D01*
G01X51025Y3149D01*
G01X50817Y3149D01*
G01X50662Y3098D01*
G01X50558Y2994D01*
G01X50558Y2890D01*
G01X50609Y2786D01*
G01X50662Y2735D01*
G01X50766Y2682D01*
G01X51079Y2578D01*
G01X51180Y2527D01*
G01X51234Y2476D01*
G01X51285Y2372D01*
G01X51285Y2214D01*
G01X51180Y2110D01*
G01X51025Y2059D01*
G01X50817Y2059D01*
G01X50662Y2110D01*
G01X50558Y2214D01*
G01X51627Y3149D02*
G01X51889Y2059D01*
G01X52148Y3149D02*
G01X51889Y2059D01*
G01X52148Y3149D02*
G01X52407Y2059D01*
G01X52666Y3149D02*
G01X52407Y2059D01*
G01X24891Y17869D02*
G01X24891Y16779D01*
G01X24891Y17869D02*
G01X25359Y17869D01*
G01X25514Y17818D01*
G01X25567Y17767D01*
G01X25618Y17663D01*
G01X25618Y17559D01*
G01X25567Y17454D01*
G01X25514Y17401D01*
G01X25359Y17350D01*
G01X24891Y17350D01*
G01X25255Y17350D02*
G01X25618Y16779D01*
G01X25961Y17663D02*
G01X26065Y17714D01*
G01X26222Y17869D01*
G01X26222Y16779D01*
G01X26565Y16416D02*
G01X27500Y16416D01*
G01X27843Y17869D02*
G01X27843Y16779D01*
G01X27843Y17869D02*
G01X28310Y17869D01*
G01X28465Y17818D01*
G01X28519Y17767D01*
G01X28569Y17663D01*
G01X28569Y17559D01*
G01X28519Y17454D01*
G01X28465Y17401D01*
G01X28310Y17350D01*
G01X27843Y17350D01*
G01X28206Y17350D02*
G01X28569Y16779D01*
G01X29641Y17714D02*
G01X29537Y17818D01*
G01X29380Y17869D01*
G01X29171Y17869D01*
G01X29016Y17818D01*
G01X28912Y17714D01*
G01X28912Y17609D01*
G01X28966Y17505D01*
G01X29016Y17454D01*
G01X29121Y17401D01*
G01X29433Y17297D01*
G01X29537Y17246D01*
G01X29588Y17195D01*
G01X29641Y17091D01*
G01X29641Y16934D01*
G01X29537Y16830D01*
G01X29380Y16779D01*
G01X29171Y16779D01*
G01X29016Y16830D01*
G01X28912Y16934D01*
G01X30347Y17869D02*
G01X30347Y16779D01*
G01X29984Y17869D02*
G01X30711Y17869D01*
G01X70870Y11468D02*
G01X70766Y11414D01*
G01X70662Y11310D01*
G01X70611Y11209D01*
G01X70611Y11000D01*
G01X70662Y10896D01*
G01X70766Y10792D01*
G01X70870Y10739D01*
G01X71025Y10688D01*
G01X71284Y10688D01*
G01X71442Y10739D01*
G01X71546Y10792D01*
G01X71650Y10896D01*
G01X71701Y11000D01*
G01X71701Y11209D01*
G01X71650Y11310D01*
G01X71546Y11414D01*
G01X71442Y11468D01*
G01X70817Y11811D02*
G01X70766Y11915D01*
G01X70611Y12070D01*
G01X71701Y12070D01*
G01X72064Y12413D02*
G01X72064Y13347D01*
G01X70611Y14003D02*
G01X70662Y13898D01*
G01X70766Y13794D01*
G01X70870Y13743D01*
G01X71025Y13690D01*
G01X71284Y13690D01*
G01X71442Y13743D01*
G01X71546Y13794D01*
G01X71650Y13898D01*
G01X71701Y14003D01*
G01X71701Y14211D01*
G01X71650Y14315D01*
G01X71546Y14419D01*
G01X71442Y14470D01*
G01X71284Y14523D01*
G01X71025Y14523D01*
G01X70870Y14470D01*
G01X70766Y14419D01*
G01X70662Y14315D01*
G01X70611Y14211D01*
G01X70611Y14003D01*
G01X70766Y15593D02*
G01X70662Y15488D01*
G01X70611Y15334D01*
G01X70611Y15125D01*
G01X70662Y14968D01*
G01X70766Y14866D01*
G01X70870Y14866D01*
G01X70975Y14917D01*
G01X71025Y14968D01*
G01X71079Y15072D01*
G01X71183Y15384D01*
G01X71234Y15488D01*
G01X71284Y15539D01*
G01X71389Y15593D01*
G01X71546Y15593D01*
G01X71650Y15488D01*
G01X71701Y15334D01*
G01X71701Y15125D01*
G01X71650Y14968D01*
G01X71546Y14866D01*
G01X70870Y16715D02*
G01X70766Y16662D01*
G01X70662Y16558D01*
G01X70611Y16454D01*
G01X70611Y16248D01*
G01X70662Y16144D01*
G01X70766Y16040D01*
G01X70870Y15986D01*
G01X71025Y15936D01*
G01X71284Y15936D01*
G01X71442Y15986D01*
G01X71546Y16040D01*
G01X71650Y16144D01*
G01X71701Y16248D01*
G01X71701Y16454D01*
G01X71650Y16558D01*
G01X71546Y16662D01*
G01X71442Y16715D01*
G01X70611Y17058D02*
G01X71701Y17058D01*
G01X70611Y17058D02*
G01X71701Y17472D01*
G01X70611Y17889D02*
G01X71701Y17472D01*
G01X70611Y17889D02*
G01X71701Y17889D01*
G01X70870Y19011D02*
G01X70766Y18958D01*
G01X70662Y18854D01*
G01X70611Y18752D01*
G01X70611Y18544D01*
G01X70662Y18440D01*
G01X70766Y18336D01*
G01X70870Y18282D01*
G01X71025Y18232D01*
G01X71284Y18232D01*
G01X71442Y18282D01*
G01X71546Y18336D01*
G01X71650Y18440D01*
G01X71701Y18544D01*
G01X71701Y18752D01*
G01X71650Y18854D01*
G01X71546Y18958D01*
G01X71442Y19011D01*
G01X70997Y1856D02*
G01X70893Y1803D01*
G01X70789Y1699D01*
G01X70738Y1597D01*
G01X70738Y1389D01*
G01X70789Y1285D01*
G01X70893Y1181D01*
G01X70997Y1127D01*
G01X71152Y1077D01*
G01X71411Y1077D01*
G01X71569Y1127D01*
G01X71673Y1181D01*
G01X71777Y1285D01*
G01X71828Y1389D01*
G01X71828Y1597D01*
G01X71777Y1699D01*
G01X71673Y1803D01*
G01X71569Y1856D01*
G01X70997Y2250D02*
G01X70944Y2250D01*
G01X70840Y2303D01*
G01X70789Y2354D01*
G01X70738Y2458D01*
G01X70738Y2667D01*
G01X70789Y2771D01*
G01X70840Y2822D01*
G01X70944Y2875D01*
G01X71048Y2875D01*
G01X71152Y2822D01*
G01X71310Y2717D01*
G01X71828Y2199D01*
G01X71828Y2926D01*
G01X72191Y3269D02*
G01X72191Y4203D01*
G01X70738Y4859D02*
G01X70789Y4754D01*
G01X70893Y4650D01*
G01X70997Y4600D01*
G01X71152Y4546D01*
G01X71411Y4546D01*
G01X71569Y4600D01*
G01X71673Y4650D01*
G01X71777Y4754D01*
G01X71828Y4859D01*
G01X71828Y5067D01*
G01X71777Y5171D01*
G01X71673Y5275D01*
G01X71569Y5326D01*
G01X71411Y5379D01*
G01X71152Y5379D01*
G01X70997Y5326D01*
G01X70893Y5275D01*
G01X70789Y5171D01*
G01X70738Y5067D01*
G01X70738Y4859D01*
G01X70893Y6449D02*
G01X70789Y6345D01*
G01X70738Y6190D01*
G01X70738Y5981D01*
G01X70789Y5826D01*
G01X70893Y5722D01*
G01X70997Y5722D01*
G01X71102Y5773D01*
G01X71152Y5826D01*
G01X71206Y5928D01*
G01X71310Y6240D01*
G01X71361Y6345D01*
G01X71411Y6398D01*
G01X71516Y6449D01*
G01X71673Y6449D01*
G01X71777Y6345D01*
G01X71828Y6190D01*
G01X71828Y5981D01*
G01X71777Y5826D01*
G01X71673Y5722D01*
G01X70997Y7571D02*
G01X70893Y7518D01*
G01X70789Y7414D01*
G01X70738Y7312D01*
G01X70738Y7104D01*
G01X70789Y7000D01*
G01X70893Y6896D01*
G01X70997Y6842D01*
G01X71152Y6792D01*
G01X71411Y6792D01*
G01X71569Y6842D01*
G01X71673Y6896D01*
G01X71777Y7000D01*
G01X71828Y7104D01*
G01X71828Y7312D01*
G01X71777Y7414D01*
G01X71673Y7518D01*
G01X71569Y7571D01*
G01X70738Y7914D02*
G01X71828Y7914D01*
G01X70738Y7914D02*
G01X71828Y8328D01*
G01X70738Y8745D02*
G01X71828Y8328D01*
G01X70738Y8745D02*
G01X71828Y8745D01*
G01X70997Y9868D02*
G01X70893Y9814D01*
G01X70789Y9713D01*
G01X70738Y9608D01*
G01X70738Y9400D01*
G01X70789Y9296D01*
G01X70893Y9192D01*
G01X70997Y9141D01*
G01X71152Y9088D01*
G01X71411Y9088D01*
G01X71569Y9141D01*
G01X71673Y9192D01*
G01X71777Y9296D01*
G01X71828Y9400D01*
G01X71828Y9608D01*
G01X71777Y9713D01*
G01X71673Y9814D01*
G01X71569Y9868D01*
G01X1651Y30314D02*
G01X1651Y29225D01*
G01X1651Y30314D02*
G01X2118Y30314D01*
G01X2273Y30264D01*
G01X2326Y30213D01*
G01X2377Y30109D01*
G01X2377Y30005D01*
G01X2326Y29900D01*
G01X2273Y29847D01*
G01X2118Y29796D01*
G01X1651Y29796D01*
G01X2014Y29796D02*
G01X2377Y29225D01*
G01X2720Y30314D02*
G01X3136Y29225D01*
G01X3553Y30314D02*
G01X3136Y29225D01*
G01X3896Y30314D02*
G01X3896Y29225D01*
G01X3896Y30314D02*
G01X4259Y30314D01*
G01X4414Y30264D01*
G01X4518Y30160D01*
G01X4572Y30055D01*
G01X4622Y29900D01*
G01X4622Y29641D01*
G01X4572Y29484D01*
G01X4518Y29380D01*
G01X4414Y29276D01*
G01X4259Y29225D01*
G01X3896Y29225D01*
G01X4965Y30109D02*
G01X5069Y30160D01*
G01X5224Y30314D01*
G01X5224Y29225D01*
G01X1651Y28917D02*
G01X1651Y27828D01*
G01X1651Y28917D02*
G01X2118Y28917D01*
G01X2273Y28867D01*
G01X2326Y28816D01*
G01X2377Y28712D01*
G01X2377Y28608D01*
G01X2326Y28503D01*
G01X2273Y28450D01*
G01X2118Y28399D01*
G01X1651Y28399D01*
G01X2014Y28399D02*
G01X2377Y27828D01*
G01X2720Y28917D02*
G01X3136Y27828D01*
G01X3553Y28917D02*
G01X3136Y27828D01*
G01X3896Y28917D02*
G01X3896Y27828D01*
G01X3896Y28917D02*
G01X4259Y28917D01*
G01X4414Y28867D01*
G01X4518Y28763D01*
G01X4572Y28658D01*
G01X4622Y28503D01*
G01X4622Y28244D01*
G01X4572Y28087D01*
G01X4518Y27983D01*
G01X4414Y27879D01*
G01X4259Y27828D01*
G01X3896Y27828D01*
G01X5016Y28658D02*
G01X5016Y28712D01*
G01X5069Y28816D01*
G01X5120Y28867D01*
G01X5224Y28917D01*
G01X5433Y28917D01*
G01X5537Y28867D01*
G01X5588Y28816D01*
G01X5641Y28712D01*
G01X5641Y28608D01*
G01X5588Y28503D01*
G01X5486Y28346D01*
G01X4965Y27828D01*
G01X5692Y27828D01*
G01X1651Y31711D02*
G01X1651Y30622D01*
G01X1651Y31711D02*
G01X2118Y31711D01*
G01X2273Y31661D01*
G01X2326Y31610D01*
G01X2377Y31506D01*
G01X2377Y31402D01*
G01X2326Y31297D01*
G01X2273Y31244D01*
G01X2118Y31193D01*
G01X1651Y31193D01*
G01X2014Y31193D02*
G01X2377Y30622D01*
G01X2720Y31711D02*
G01X2720Y30622D01*
G01X2720Y31711D02*
G01X3187Y31711D01*
G01X3345Y31661D01*
G01X3395Y31610D01*
G01X3449Y31506D01*
G01X3449Y31402D01*
G01X3395Y31297D01*
G01X3345Y31244D01*
G01X3187Y31193D01*
G01X2720Y31193D01*
G01X3086Y31193D02*
G01X3449Y30622D01*
G01X3792Y31711D02*
G01X3792Y30622D01*
G01X3792Y31711D02*
G01X4259Y31711D01*
G01X4414Y31661D01*
G01X4467Y31610D01*
G01X4518Y31506D01*
G01X4518Y31348D01*
G01X4467Y31244D01*
G01X4414Y31193D01*
G01X4259Y31140D01*
G01X3792Y31140D01*
G01X4861Y31506D02*
G01X4965Y31557D01*
G01X5120Y31711D01*
G01X5120Y30622D01*
G01X1651Y33108D02*
G01X1651Y32019D01*
G01X1651Y33108D02*
G01X2118Y33108D01*
G01X2273Y33058D01*
G01X2326Y33007D01*
G01X2377Y32903D01*
G01X2377Y32799D01*
G01X2326Y32694D01*
G01X2273Y32641D01*
G01X2118Y32590D01*
G01X1651Y32590D01*
G01X2014Y32590D02*
G01X2377Y32019D01*
G01X2720Y33108D02*
G01X2720Y32019D01*
G01X2720Y33108D02*
G01X3187Y33108D01*
G01X3345Y33058D01*
G01X3396Y33007D01*
G01X3449Y32903D01*
G01X3449Y32799D01*
G01X3396Y32694D01*
G01X3345Y32641D01*
G01X3187Y32590D01*
G01X2720Y32590D01*
G01X3086Y32590D02*
G01X3449Y32019D01*
G01X3792Y33108D02*
G01X3792Y32019D01*
G01X3792Y33108D02*
G01X4259Y33108D01*
G01X4414Y33058D01*
G01X4467Y33007D01*
G01X4518Y32903D01*
G01X4518Y32745D01*
G01X4467Y32641D01*
G01X4414Y32590D01*
G01X4259Y32537D01*
G01X3792Y32537D01*
G01X4914Y32849D02*
G01X4914Y32903D01*
G01X4965Y33007D01*
G01X5016Y33058D01*
G01X5120Y33108D01*
G01X5328Y33108D01*
G01X5433Y33058D01*
G01X5486Y33007D01*
G01X5537Y32903D01*
G01X5537Y32799D01*
G01X5486Y32694D01*
G01X5382Y32537D01*
G01X4861Y32019D01*
G01X5588Y32019D01*
G01X12463Y7957D02*
G01X12410Y8062D01*
G01X12306Y8166D01*
G01X12204Y8217D01*
G01X11996Y8217D01*
G01X11892Y8166D01*
G01X11788Y8062D01*
G01X11734Y7957D01*
G01X11684Y7802D01*
G01X11684Y7543D01*
G01X11734Y7386D01*
G01X11788Y7282D01*
G01X11892Y7178D01*
G01X11996Y7127D01*
G01X12204Y7127D01*
G01X12306Y7178D01*
G01X12410Y7282D01*
G01X12463Y7386D01*
G01X12806Y8011D02*
G01X12910Y8062D01*
G01X13065Y8217D01*
G01X13065Y7127D01*
G01X13408Y6764D02*
G01X14343Y6764D01*
G01X15415Y8062D02*
G01X15311Y8166D01*
G01X15153Y8217D01*
G01X14947Y8217D01*
G01X14790Y8166D01*
G01X14686Y8062D01*
G01X14686Y7957D01*
G01X14739Y7853D01*
G01X14790Y7802D01*
G01X14894Y7749D01*
G01X15206Y7645D01*
G01X15311Y7594D01*
G01X15361Y7543D01*
G01X15415Y7439D01*
G01X15415Y7282D01*
G01X15311Y7178D01*
G01X15153Y7127D01*
G01X14947Y7127D01*
G01X14790Y7178D01*
G01X14686Y7282D01*
G01X15758Y8217D02*
G01X15758Y7127D01*
G01X15758Y8217D02*
G01X16433Y8217D01*
G01X15758Y7698D02*
G01X16172Y7698D01*
G01X15758Y7127D02*
G01X16433Y7127D01*
G01X16776Y8217D02*
G01X16776Y7127D01*
G01X16776Y8217D02*
G01X17244Y8217D01*
G01X17399Y8166D01*
G01X17449Y8115D01*
G01X17503Y8011D01*
G01X17503Y7907D01*
G01X17449Y7802D01*
G01X17399Y7749D01*
G01X17244Y7698D01*
G01X16776Y7698D01*
G01X17139Y7698D02*
G01X17503Y7127D01*
G01X16509Y5550D02*
G01X16509Y4460D01*
G01X16509Y5550D02*
G01X16977Y5550D01*
G01X17132Y5499D01*
G01X17185Y5448D01*
G01X17236Y5344D01*
G01X17236Y5240D01*
G01X17185Y5135D01*
G01X17132Y5082D01*
G01X16977Y5031D01*
G01X16509Y5031D01*
G01X16873Y5031D02*
G01X17236Y4460D01*
G01X17579Y5550D02*
G01X17579Y4460D01*
G01X17579Y5550D02*
G01X17995Y4460D01*
G01X18412Y5550D02*
G01X17995Y4460D01*
G01X18412Y5550D02*
G01X18412Y4460D01*
G01X19532Y5290D02*
G01X19481Y5395D01*
G01X19377Y5499D01*
G01X19273Y5550D01*
G01X19065Y5550D01*
G01X18961Y5499D01*
G01X18859Y5395D01*
G01X18806Y5290D01*
G01X18755Y5135D01*
G01X18755Y4876D01*
G01X18806Y4719D01*
G01X18859Y4615D01*
G01X18961Y4511D01*
G01X19065Y4460D01*
G01X19273Y4460D01*
G01X19377Y4511D01*
G01X19481Y4615D01*
G01X19532Y4719D01*
G01X19875Y5550D02*
G01X19875Y4460D01*
G01X19875Y5550D02*
G01X20345Y5550D01*
G01X20500Y5499D01*
G01X20551Y5448D01*
G01X20604Y5344D01*
G01X20604Y5240D01*
G01X20551Y5135D01*
G01X20500Y5082D01*
G01X20345Y5031D01*
G01X19875Y5031D01*
G01X20241Y5031D02*
G01X20604Y4460D01*
G01X20947Y5550D02*
G01X21673Y4460D01*
G01X21673Y5550D02*
G01X20947Y4460D01*
G01X16507Y3900D02*
G01X16507Y2810D01*
G01X16507Y3900D02*
G01X16975Y3900D01*
G01X17130Y3849D01*
G01X17183Y3798D01*
G01X17234Y3694D01*
G01X17234Y3590D01*
G01X17183Y3486D01*
G01X17130Y3433D01*
G01X16975Y3382D01*
G01X16507Y3382D01*
G01X16871Y3382D02*
G01X17234Y2810D01*
G01X17577Y3900D02*
G01X17577Y2810D01*
G01X17577Y3900D02*
G01X17993Y2810D01*
G01X18410Y3900D02*
G01X17993Y2810D01*
G01X18410Y3900D02*
G01X18410Y2810D01*
G01X19530Y3641D02*
G01X19479Y3745D01*
G01X19375Y3849D01*
G01X19271Y3900D01*
G01X19063Y3900D01*
G01X18959Y3849D01*
G01X18857Y3745D01*
G01X18804Y3641D01*
G01X18753Y3486D01*
G01X18753Y3227D01*
G01X18804Y3069D01*
G01X18857Y2965D01*
G01X18959Y2861D01*
G01X19063Y2810D01*
G01X19271Y2810D01*
G01X19375Y2861D01*
G01X19479Y2965D01*
G01X19530Y3069D01*
G01X20239Y3900D02*
G01X20239Y2810D01*
G01X19873Y3900D02*
G01X20602Y3900D01*
G01X20945Y3900D02*
G01X21671Y2810D01*
G01X21671Y3900D02*
G01X20945Y2810D01*
G01X38232Y11750D02*
G01X38127Y11696D01*
G01X38023Y11592D01*
G01X37972Y11491D01*
G01X37972Y11282D01*
G01X38023Y11178D01*
G01X38127Y11074D01*
G01X38232Y11021D01*
G01X38386Y10970D01*
G01X38646Y10970D01*
G01X38803Y11021D01*
G01X38907Y11074D01*
G01X39011Y11178D01*
G01X39062Y11282D01*
G01X39062Y11491D01*
G01X39011Y11592D01*
G01X38907Y11696D01*
G01X38803Y11750D01*
G01X38178Y12093D02*
G01X38127Y12197D01*
G01X37972Y12352D01*
G01X39062Y12352D01*
G01X39425Y12694D02*
G01X39425Y13629D01*
G01X37972Y14285D02*
G01X38023Y14180D01*
G01X38127Y14076D01*
G01X38232Y14025D01*
G01X38386Y13972D01*
G01X38646Y13972D01*
G01X38803Y14025D01*
G01X38907Y14076D01*
G01X39011Y14180D01*
G01X39062Y14285D01*
G01X39062Y14493D01*
G01X39011Y14597D01*
G01X38907Y14701D01*
G01X38803Y14752D01*
G01X38646Y14805D01*
G01X38386Y14805D01*
G01X38232Y14752D01*
G01X38127Y14701D01*
G01X38023Y14597D01*
G01X37972Y14493D01*
G01X37972Y14285D01*
G01X38127Y15875D02*
G01X38023Y15770D01*
G01X37972Y15615D01*
G01X37972Y15407D01*
G01X38023Y15250D01*
G01X38127Y15148D01*
G01X38232Y15148D01*
G01X38336Y15199D01*
G01X38386Y15250D01*
G01X38440Y15354D01*
G01X38544Y15666D01*
G01X38595Y15770D01*
G01X38646Y15821D01*
G01X38750Y15875D01*
G01X38907Y15875D01*
G01X39011Y15770D01*
G01X39062Y15615D01*
G01X39062Y15407D01*
G01X39011Y15250D01*
G01X38907Y15148D01*
G01X38232Y16997D02*
G01X38127Y16944D01*
G01X38023Y16840D01*
G01X37972Y16736D01*
G01X37972Y16530D01*
G01X38023Y16426D01*
G01X38127Y16322D01*
G01X38232Y16268D01*
G01X38386Y16217D01*
G01X38646Y16217D01*
G01X38803Y16268D01*
G01X38907Y16322D01*
G01X39011Y16426D01*
G01X39062Y16530D01*
G01X39062Y16736D01*
G01X39011Y16840D01*
G01X38907Y16944D01*
G01X38803Y16997D01*
G01X38127Y18067D02*
G01X38023Y17962D01*
G01X37972Y17808D01*
G01X37972Y17599D01*
G01X38023Y17444D01*
G01X38127Y17340D01*
G01X38232Y17340D01*
G01X38336Y17391D01*
G01X38386Y17444D01*
G01X38440Y17548D01*
G01X38544Y17858D01*
G01X38595Y17962D01*
G01X38646Y18016D01*
G01X38750Y18067D01*
G01X38907Y18067D01*
G01X39011Y17962D01*
G01X39062Y17808D01*
G01X39062Y17599D01*
G01X39011Y17444D01*
G01X38907Y17340D01*
G01X37972Y18409D02*
G01X39062Y18409D01*
G01X37972Y18409D02*
G01X37972Y19085D01*
G01X38491Y18409D02*
G01X38491Y18826D01*
G01X39062Y18409D02*
G01X39062Y19085D01*
G01X37972Y19428D02*
G01X39062Y19428D01*
G01X37972Y19428D02*
G01X37972Y19895D01*
G01X38023Y20050D01*
G01X38074Y20104D01*
G01X38178Y20154D01*
G01X38282Y20154D01*
G01X38386Y20104D01*
G01X38440Y20050D01*
G01X38491Y19895D01*
G01X38491Y19428D01*
G01X38491Y19791D02*
G01X39062Y20154D01*
G01X38232Y1503D02*
G01X38127Y1450D01*
G01X38023Y1346D01*
G01X37972Y1244D01*
G01X37972Y1036D01*
G01X38023Y932D01*
G01X38127Y828D01*
G01X38232Y774D01*
G01X38386Y723D01*
G01X38646Y723D01*
G01X38803Y774D01*
G01X38907Y828D01*
G01X39011Y932D01*
G01X39062Y1036D01*
G01X39062Y1244D01*
G01X39011Y1346D01*
G01X38907Y1450D01*
G01X38803Y1503D01*
G01X38232Y1897D02*
G01X38178Y1897D01*
G01X38074Y1950D01*
G01X38023Y2001D01*
G01X37972Y2105D01*
G01X37972Y2314D01*
G01X38023Y2418D01*
G01X38074Y2468D01*
G01X38178Y2522D01*
G01X38282Y2522D01*
G01X38386Y2468D01*
G01X38544Y2364D01*
G01X39062Y1846D01*
G01X39062Y2573D01*
G01X39425Y2915D02*
G01X39425Y3850D01*
G01X37972Y4506D02*
G01X38023Y4401D01*
G01X38127Y4297D01*
G01X38232Y4246D01*
G01X38386Y4193D01*
G01X38646Y4193D01*
G01X38803Y4246D01*
G01X38907Y4297D01*
G01X39011Y4401D01*
G01X39062Y4506D01*
G01X39062Y4714D01*
G01X39011Y4818D01*
G01X38907Y4922D01*
G01X38803Y4973D01*
G01X38646Y5026D01*
G01X38386Y5026D01*
G01X38232Y4973D01*
G01X38127Y4922D01*
G01X38023Y4818D01*
G01X37972Y4714D01*
G01X37972Y4506D01*
G01X38127Y6096D02*
G01X38023Y5991D01*
G01X37972Y5836D01*
G01X37972Y5628D01*
G01X38023Y5473D01*
G01X38127Y5369D01*
G01X38232Y5369D01*
G01X38336Y5420D01*
G01X38386Y5473D01*
G01X38440Y5575D01*
G01X38544Y5887D01*
G01X38595Y5991D01*
G01X38646Y6045D01*
G01X38750Y6096D01*
G01X38907Y6096D01*
G01X39011Y5991D01*
G01X39062Y5836D01*
G01X39062Y5628D01*
G01X39011Y5473D01*
G01X38907Y5369D01*
G01X38232Y7218D02*
G01X38127Y7165D01*
G01X38023Y7061D01*
G01X37972Y6959D01*
G01X37972Y6751D01*
G01X38023Y6647D01*
G01X38127Y6543D01*
G01X38232Y6489D01*
G01X38386Y6438D01*
G01X38646Y6438D01*
G01X38803Y6489D01*
G01X38907Y6543D01*
G01X39011Y6647D01*
G01X39062Y6751D01*
G01X39062Y6959D01*
G01X39011Y7061D01*
G01X38907Y7165D01*
G01X38803Y7218D01*
G01X38127Y8288D02*
G01X38023Y8183D01*
G01X37972Y8029D01*
G01X37972Y7820D01*
G01X38023Y7665D01*
G01X38127Y7561D01*
G01X38232Y7561D01*
G01X38336Y7612D01*
G01X38386Y7665D01*
G01X38440Y7769D01*
G01X38544Y8079D01*
G01X38595Y8183D01*
G01X38646Y8237D01*
G01X38750Y8288D01*
G01X38907Y8288D01*
G01X39011Y8183D01*
G01X39062Y8029D01*
G01X39062Y7820D01*
G01X39011Y7665D01*
G01X38907Y7561D01*
G01X37972Y8630D02*
G01X39062Y8630D01*
G01X37972Y8630D02*
G01X37972Y9306D01*
G01X38491Y8630D02*
G01X38491Y9047D01*
G01X39062Y8630D02*
G01X39062Y9306D01*
G01X37972Y9649D02*
G01X39062Y9649D01*
G01X37972Y9649D02*
G01X37972Y10116D01*
G01X38023Y10274D01*
G01X38074Y10325D01*
G01X38178Y10375D01*
G01X38282Y10375D01*
G01X38386Y10325D01*
G01X38440Y10274D01*
G01X38491Y10116D01*
G01X38491Y9649D01*
G01X38491Y10012D02*
G01X39062Y10375D01*
G01X12969Y14182D02*
G01X12916Y14286D01*
G01X12812Y14390D01*
G01X12710Y14441D01*
G01X12502Y14441D01*
G01X12398Y14390D01*
G01X12294Y14286D01*
G01X12240Y14182D01*
G01X12189Y14027D01*
G01X12189Y13768D01*
G01X12240Y13610D01*
G01X12294Y13506D01*
G01X12398Y13402D01*
G01X12502Y13351D01*
G01X12710Y13351D01*
G01X12812Y13402D01*
G01X12916Y13506D01*
G01X12969Y13610D01*
G01X13363Y14182D02*
G01X13363Y14235D01*
G01X13416Y14339D01*
G01X13467Y14390D01*
G01X13571Y14441D01*
G01X13779Y14441D01*
G01X13884Y14390D01*
G01X13934Y14339D01*
G01X13988Y14235D01*
G01X13988Y14131D01*
G01X13934Y14027D01*
G01X13830Y13870D01*
G01X13312Y13351D01*
G01X14039Y13351D01*
G01X14381Y12988D02*
G01X15316Y12988D01*
G01X16388Y14286D02*
G01X16284Y14390D01*
G01X16126Y14441D01*
G01X15921Y14441D01*
G01X15763Y14390D01*
G01X15659Y14286D01*
G01X15659Y14182D01*
G01X15712Y14078D01*
G01X15763Y14027D01*
G01X15867Y13974D01*
G01X16180Y13870D01*
G01X16284Y13819D01*
G01X16335Y13768D01*
G01X16388Y13664D01*
G01X16388Y13506D01*
G01X16284Y13402D01*
G01X16126Y13351D01*
G01X15921Y13351D01*
G01X15763Y13402D01*
G01X15659Y13506D01*
G01X16731Y14441D02*
G01X16731Y13351D01*
G01X16731Y14441D02*
G01X17407Y14441D01*
G01X16731Y13923D02*
G01X17145Y13923D01*
G01X16731Y13351D02*
G01X17407Y13351D01*
G01X17749Y14441D02*
G01X17749Y13351D01*
G01X17749Y14441D02*
G01X18217Y14441D01*
G01X18372Y14390D01*
G01X18425Y14339D01*
G01X18476Y14235D01*
G01X18476Y14131D01*
G01X18425Y14027D01*
G01X18372Y13974D01*
G01X18217Y13923D01*
G01X17749Y13923D01*
G01X18113Y13923D02*
G01X18476Y13351D01*
G01X16400Y16212D02*
G01X16347Y16317D01*
G01X16243Y16421D01*
G01X16141Y16471D01*
G01X15933Y16471D01*
G01X15829Y16421D01*
G01X15725Y16317D01*
G01X15671Y16212D01*
G01X15621Y16057D01*
G01X15621Y15798D01*
G01X15671Y15641D01*
G01X15725Y15537D01*
G01X15829Y15433D01*
G01X15933Y15382D01*
G01X16141Y15382D01*
G01X16243Y15433D01*
G01X16347Y15537D01*
G01X16400Y15641D01*
G01X16847Y16471D02*
G01X17419Y16471D01*
G01X17106Y16057D01*
G01X17261Y16057D01*
G01X17365Y16004D01*
G01X17419Y15953D01*
G01X17470Y15798D01*
G01X17470Y15694D01*
G01X17419Y15537D01*
G01X17315Y15433D01*
G01X17157Y15382D01*
G01X17002Y15382D01*
G01X16847Y15433D01*
G01X16794Y15486D01*
G01X16743Y15590D01*
G01X17813Y15019D02*
G01X18747Y15019D01*
G01X19819Y16317D02*
G01X19715Y16421D01*
G01X19558Y16471D01*
G01X19352Y16471D01*
G01X19194Y16421D01*
G01X19090Y16317D01*
G01X19090Y16212D01*
G01X19143Y16108D01*
G01X19194Y16057D01*
G01X19298Y16004D01*
G01X19611Y15900D01*
G01X19715Y15849D01*
G01X19766Y15798D01*
G01X19819Y15694D01*
G01X19819Y15537D01*
G01X19715Y15433D01*
G01X19558Y15382D01*
G01X19352Y15382D01*
G01X19194Y15433D01*
G01X19090Y15537D01*
G01X20162Y16471D02*
G01X20162Y15382D01*
G01X20162Y16471D02*
G01X20838Y16471D01*
G01X20162Y15953D02*
G01X20576Y15953D01*
G01X20162Y15382D02*
G01X20838Y15382D01*
G01X21181Y16471D02*
G01X21181Y15382D01*
G01X21181Y16471D02*
G01X21648Y16471D01*
G01X21803Y16421D01*
G01X21856Y16370D01*
G01X21907Y16266D01*
G01X21907Y16162D01*
G01X21856Y16057D01*
G01X21803Y16004D01*
G01X21648Y15953D01*
G01X21181Y15953D01*
G01X21544Y15953D02*
G01X21907Y15382D01*
G54D10*
G75*
G01X67056Y14977D02*
G2X67945Y13297I-1143J-1680D01*
G01*
G75*
G01X67945Y6439D02*
G2X67056Y4759I-2032J0D01*
G01*
G75*
G01X63500Y4407D02*
G3X63754Y4153I254J0D01*
G01*
G75*
G01X64643Y6439D02*
G3X64770Y5885I1270J0D01*
G01*
G75*
G01X67183Y6439D02*
G2X67056Y5885I-1270J0D01*
G01*
G75*
G01X63881Y6439D02*
G3X64770Y4759I2032J0D01*
G01*
G75*
G01X64770Y14977D02*
G3X63881Y13297I1143J-1680D01*
G01*
G75*
G01X64770Y13851D02*
G3X64643Y13297I1143J-554D01*
G01*
G75*
G01X67056Y13851D02*
G2X67183Y13297I-1143J-554D01*
G01*
G75*
G01X63754Y15583D02*
G3X63500Y15329I0J-254D01*
G01*
G75*
G01X68326Y4407D02*
G2X68072Y4153I-254J0D01*
G01*
G75*
G01X68072Y15583D02*
G2X68326Y15329I0J-254D01*
G01*
G54D49*
G75*
G01X6140Y23171D02*
G3X6140Y23174I125J1D01*
G01*
G54D11*
G75*
G01X18163Y8469D02*
G3X18166Y8469I1J-200D01*
G01*
G54D10*
G75*
G01X34163Y15104D02*
G2X35052Y13424I-1143J-1680D01*
G01*
G75*
G01X35052Y6566D02*
G2X34163Y4886I-2032J0D01*
G01*
G75*
G01X30607Y4534D02*
G3X30861Y4280I254J0D01*
G01*
G75*
G01X31750Y6566D02*
G3X31877Y6012I1270J0D01*
G01*
G75*
G01X34290Y6566D02*
G2X34163Y6012I-1270J0D01*
G01*
G75*
G01X30988Y6566D02*
G3X31877Y4886I2032J0D01*
G01*
G75*
G01X31877Y15104D02*
G3X30988Y13424I1143J-1680D01*
G01*
G75*
G01X31877Y13978D02*
G3X31750Y13424I1143J-554D01*
G01*
G75*
G01X34163Y13978D02*
G2X34290Y13424I-1143J-554D01*
G01*
G75*
G01X30861Y15710D02*
G3X30607Y15456I0J-254D01*
G01*
G75*
G01X35433Y4534D02*
G2X35179Y4280I-254J0D01*
G01*
G75*
G01X35179Y15710D02*
G2X35433Y15456I0J-254D01*
G01*
G75*
G01X7556Y13350D02*
G3X11274Y13378I1854J751D01*
G01*
G75*
G01X11264Y14782D02*
G3X7546Y14754I-1854J-751D01*
G01*
G75*
G01X82684Y43904D02*
G03X82684Y43904I-1965J0D01*
G01*
G75*
G01X90934Y43937D02*
G03X90934Y43937I-1965J0D01*
G01*
G75*
G01X65795Y43902D02*
G03X65795Y43902I-1965J0D01*
G01*
G75*
G01X74045Y43936D02*
G03X74045Y43936I-1965J0D01*
G01*
G75*
G01X57260Y7155D02*
G03X57260Y7155I-356J0D01*
G01*

%LPD*%
G36*
G01X10552Y15716D02*
G01X10425Y15716D01*
G01X10425Y14573D01*
G01X11314Y14573D01*
G01X11264Y14624D01*
G01X11264Y15005D01*
G01X10552Y15716D01*
G37*

%LPD*%
G36*
G01X10578Y12440D02*
G01X10451Y12440D01*
G01X10451Y13583D01*
G01X11340Y13583D01*
G01X11289Y13532D01*
G01X11289Y13151D01*
G01X10578Y12440D01*
G37*
M00*
M02*
