;PTH Drill file created by EasyEDA 
M48
METRIC,LZ,000.000
;Holesize 1 = 0.305 METRIC
T01C0.305
;Holesize 2 = 0.501 METRIC
T02C0.501
;Holesize 3 = 0.600 METRIC
T03C0.600
;Holesize 4 = 0.813 METRIC
T04C0.813
;Holesize 5 = 1.016 METRIC
T05C1.016
;Holesize 6 = 1.199 METRIC
T06C1.199
;Holesize 7 = 1.501 METRIC
T07C1.501
;Holesize 8 = 1.524 METRIC
T08C1.524
%
G05
G90
T01
X+056007Y+030822
X+045214Y+030821
X+094616Y+016724
X+057912Y+016725
X+079501Y+012280
X+091693Y+012280
X+045974Y+040220
X+055880Y+027901
X+022862Y+044284
X+034036Y+019519
X+032766Y+021043
X+080644Y+014312
X+092582Y+014312
X+041910Y+012661
X+017397Y+016600
X+062357Y+010121
X+047498Y+011137
X+015621Y+022948
X+026797Y+026250
X+039624Y+041871
X+050675Y+041870
X+057150Y+026631
X+073025Y+015455
X+084835Y+015455
X+059563Y+014312
X+017399Y+022059
X+043307Y+010629
X+038227Y+009994
X+012192Y+005549
X+029337Y+011391
X+038354Y+028155
X+051562Y+024726
X+030353Y+043141
X+055118Y+043141
X+083057Y+005295
X+070865Y+005168
X+095757Y+011137
T02
X+002471Y+013479G85X+003472Y+013479
X+002471Y+007830G85X+003472Y+007830
X+054161Y+009898
T03
X+005200Y+008648
X+005200Y+012661
T04
X+007749Y+039837
X+013972Y+039837
X+010797Y+034884
T05
X+042036Y+021424
X+042036Y+023964
X+044576Y+021424
X+044576Y+023964
X+047116Y+021424
X+047116Y+023964
T06
X+087629Y+007835
X+090131Y+007835
X+075691Y+007835
X+078193Y+007835
X+041150Y+033234
X+043651Y+033234
X+051943Y+033235
X+054444Y+033235
X+022862Y+046061
X+020360Y+046061
X+017860Y+046061
X+034040Y+046059
X+031538Y+046059
X+029038Y+046059
X+045089Y+046059
X+042587Y+046059
X+040087Y+046059
X+055880Y+046062
X+053378Y+046062
X+050878Y+046062
X+022860Y+038188
X+020358Y+038188
X+017858Y+038188
X+034038Y+038187
X+031536Y+038187
X+029036Y+038187
X+022862Y+030694
X+020360Y+030694
X+017860Y+030694
X+034036Y+030695
X+031534Y+030695
X+029034Y+030695
T07
X+080459Y+039903
X+088958Y+039903
X+063570Y+039901
X+072069Y+039901
T08
X+090835Y+034864
X+084835Y+020662
X+078836Y+022661
X+090835Y+022661
X+078836Y+034864
X+074196Y+034865
X+068196Y+020664
X+062197Y+022663
X+074196Y+022663
X+062197Y+034865
M30
